<svg xmlns="http://www.w3.org/2000/svg" viewBox="0 0 1280 676" width="1280" height="676" role="img">
<defs><linearGradient id="appbar" x1="0" y1="0" x2="1" y2="1"><stop offset="0" stop-color="#4361EE"/><stop offset="1" stop-color="#6366F1"/></linearGradient><filter id="cardShadow" x="-8%" y="-8%" width="116%" height="124%"><feDropShadow dx="0" dy="2" stdDeviation="5" flood-color="#0F172A" flood-opacity="0.06"/></filter><filter id="floatShadow" x="-20%" y="-20%" width="140%" height="150%"><feDropShadow dx="0" dy="8" stdDeviation="14" flood-color="#0F172A" flood-opacity="0.12"/></filter><linearGradient id="imgGrad" x1="0" y1="0" x2="0" y2="1"><stop offset="0" stop-color="#FFFFFF"/><stop offset="1" stop-color="#EEF2FF"/></linearGradient><clipPath id="round"><rect x="0" y="0" width="1280" height="676" rx="2"/></clipPath></defs>
<g clip-path="url(#round)">
<rect x="0" y="0" width="1280" height="676" rx="0" fill="#F8FAFC"/>
<rect x="24" y="80" width="260" height="34" rx="10" fill="#FFFFFF" stroke="#E2E8F0" stroke-width="1"/><g transform="translate(34,86) scale(0.9166666666666666)"><rect fill="none" stroke="#4361EE" stroke-width="2" stroke-linecap="round" stroke-linejoin="round" x="4" y="5" width="16" height="16" rx="2"/><path fill="none" stroke="#4361EE" stroke-width="2" stroke-linecap="round" stroke-linejoin="round" d="M4 9h16M8 3v4M16 3v4"/></g><text x="66" y="102" font-family="'Segoe UI', Roboto, -apple-system, BlinkMacSystemFont, Helvetica, Arial, sans-serif" font-size="13" font-weight="600" fill="#334155" text-anchor="start">01/01/2026  -&gt;  06/30/2026</text><rect x="24.0" y="132" width="400.0" height="104" rx="16" fill="#FFFFFF" stroke="#E2E8F0" stroke-width="1" filter="url(#cardShadow)"/><rect x="42.0" y="150" width="38" height="38" rx="10" fill="#DCFCE7"/><g transform="translate(50.36,158.36) scale(0.8866666666666667)"><path fill="none" stroke="#16A34A" stroke-width="2" stroke-linecap="round" stroke-linejoin="round" d="M3 17l6-6 4 4 8-8"/><path fill="none" stroke="#16A34A" stroke-width="2" stroke-linecap="round" stroke-linejoin="round" d="M21 7v5M21 7h-5"/></g><text x="42.0" y="210" font-family="'Segoe UI', Roboto, -apple-system, BlinkMacSystemFont, Helvetica, Arial, sans-serif" font-size="24" font-weight="700" fill="#0F172A" text-anchor="start">€452,305</text><text x="42.0" y="228" font-family="'Segoe UI', Roboto, -apple-system, BlinkMacSystemFont, Helvetica, Arial, sans-serif" font-size="12.5" font-weight="500" fill="#64748B" text-anchor="start">Net revenue (excl. tax)</text><rect x="440.0" y="132" width="400.0" height="104" rx="16" fill="#FFFFFF" stroke="#E2E8F0" stroke-width="1" filter="url(#cardShadow)"/><rect x="458.0" y="150" width="38" height="38" rx="10" fill="#DBEAFE"/><g transform="translate(466.36,158.36) scale(0.8866666666666667)"><path fill="none" stroke="#2563EB" stroke-width="2" stroke-linecap="round" stroke-linejoin="round" d="M4 20V4"/><path fill="none" stroke="#2563EB" stroke-width="2" stroke-linecap="round" stroke-linejoin="round" d="M4 20h16"/><rect fill="#2563EB" x="7" y="12" width="3" height="6"/><rect fill="#2563EB" x="12" y="8" width="3" height="10"/><rect fill="#2563EB" x="17" y="5" width="3" height="13"/></g><text x="458.0" y="210" font-family="'Segoe UI', Roboto, -apple-system, BlinkMacSystemFont, Helvetica, Arial, sans-serif" font-size="24" font-weight="700" fill="#0F172A" text-anchor="start">€180,922</text><text x="458.0" y="228" font-family="'Segoe UI', Roboto, -apple-system, BlinkMacSystemFont, Helvetica, Arial, sans-serif" font-size="12.5" font-weight="500" fill="#64748B" text-anchor="start">Gross margin</text><rect x="856.0" y="132" width="400.0" height="104" rx="16" fill="#FFFFFF" stroke="#E2E8F0" stroke-width="1" filter="url(#cardShadow)"/><rect x="874.0" y="150" width="38" height="38" rx="10" fill="#FEF3C7"/><g transform="translate(882.36,158.36) scale(0.8866666666666667)"><path fill="none" stroke="#D97706" stroke-width="2" stroke-linecap="round" stroke-linejoin="round" d="M4 7l8-4 8 4v10l-8 4-8-4z"/><path fill="none" stroke="#D97706" stroke-width="2" stroke-linecap="round" stroke-linejoin="round" d="M4 7l8 4 8-4M12 11v10"/></g><text x="874.0" y="210" font-family="'Segoe UI', Roboto, -apple-system, BlinkMacSystemFont, Helvetica, Arial, sans-serif" font-size="24" font-weight="700" fill="#0F172A" text-anchor="start">€271,383</text><text x="874.0" y="228" font-family="'Segoe UI', Roboto, -apple-system, BlinkMacSystemFont, Helvetica, Arial, sans-serif" font-size="12.5" font-weight="500" fill="#64748B" text-anchor="start">Cost of goods (COGS)</text><rect x="24.0" y="252" width="400.0" height="104" rx="16" fill="#FFFFFF" stroke="#E2E8F0" stroke-width="1" filter="url(#cardShadow)"/><rect x="42.0" y="270" width="38" height="38" rx="10" fill="#EEF2FF"/><g transform="translate(50.36,278.36) scale(0.8866666666666667)"><path fill="none" stroke="#6366F1" stroke-width="2" stroke-linecap="round" stroke-linejoin="round" d="M5 3h11v18l-1.6-1.2L12.8 21 11.2 19.8 9 21V3z"/><path fill="none" stroke="#6366F1" stroke-width="2" stroke-linecap="round" stroke-linejoin="round" d="M19 7v14"/><path fill="none" stroke="#6366F1" stroke-width="2" stroke-linecap="round" stroke-linejoin="round" d="M8 8h5M8 12h5"/></g><text x="42.0" y="330" font-family="'Segoe UI', Roboto, -apple-system, BlinkMacSystemFont, Helvetica, Arial, sans-serif" font-size="24" font-weight="700" fill="#0F172A" text-anchor="start">€8,549</text><text x="42.0" y="348" font-family="'Segoe UI', Roboto, -apple-system, BlinkMacSystemFont, Helvetica, Arial, sans-serif" font-size="12.5" font-weight="500" fill="#64748B" text-anchor="start">VAT payable</text><rect x="440.0" y="252" width="400.0" height="104" rx="16" fill="#FFFFFF" stroke="#E2E8F0" stroke-width="1" filter="url(#cardShadow)"/><rect x="458.0" y="270" width="38" height="38" rx="10" fill="#CCFBF1"/><g transform="translate(466.36,278.36) scale(0.8866666666666667)"><rect fill="none" stroke="#0D9488" stroke-width="2" stroke-linecap="round" stroke-linejoin="round" x="3" y="6" width="18" height="13" rx="2.5"/><path fill="none" stroke="#0D9488" stroke-width="2" stroke-linecap="round" stroke-linejoin="round" d="M3 10h18"/><circle fill="#0D9488" cx="16.5" cy="14" r="1.4"/></g><text x="458.0" y="330" font-family="'Segoe UI', Roboto, -apple-system, BlinkMacSystemFont, Helvetica, Arial, sans-serif" font-size="24" font-weight="700" fill="#0F172A" text-anchor="start">€124,508</text><text x="458.0" y="348" font-family="'Segoe UI', Roboto, -apple-system, BlinkMacSystemFont, Helvetica, Arial, sans-serif" font-size="12.5" font-weight="500" fill="#64748B" text-anchor="start">Net cash</text><rect x="856.0" y="252" width="400.0" height="104" rx="16" fill="#FFFFFF" stroke="#E2E8F0" stroke-width="1" filter="url(#cardShadow)"/><rect x="874.0" y="270" width="38" height="38" rx="10" fill="#EEF2FF"/><g transform="translate(882.36,278.36) scale(0.8866666666666667)"><path fill="none" stroke="#4361EE" stroke-width="2" stroke-linecap="round" stroke-linejoin="round" d="M3 21V8l9-4 9 4v13"/><path fill="none" stroke="#4361EE" stroke-width="2" stroke-linecap="round" stroke-linejoin="round" d="M7 21v-7h10v7"/><path fill="none" stroke="#4361EE" stroke-width="2" stroke-linecap="round" stroke-linejoin="round" d="M7 17h10"/></g><text x="874.0" y="330" font-family="'Segoe UI', Roboto, -apple-system, BlinkMacSystemFont, Helvetica, Arial, sans-serif" font-size="24" font-weight="700" fill="#0F172A" text-anchor="start">€156,320</text><text x="874.0" y="348" font-family="'Segoe UI', Roboto, -apple-system, BlinkMacSystemFont, Helvetica, Arial, sans-serif" font-size="12.5" font-weight="500" fill="#64748B" text-anchor="start">Stock value (cost)</text><rect x="24" y="368" width="1232" height="284" rx="16" fill="#FFFFFF" stroke="#E2E8F0" stroke-width="1" filter="url(#cardShadow)"/><text x="48" y="400" font-family="'Segoe UI', Roboto, -apple-system, BlinkMacSystemFont, Helvetica, Arial, sans-serif" font-size="15" font-weight="700" fill="#0F172A" text-anchor="start">VAT summary</text><circle cx="54.0" cy="430" r="6" fill="#2563EB"/><text x="70.0" y="435" font-family="'Segoe UI', Roboto, -apple-system, BlinkMacSystemFont, Helvetica, Arial, sans-serif" font-size="13.5" font-weight="500" fill="#475569" text-anchor="start">VAT collected</text><text x="48.0" y="468" font-family="'Segoe UI', Roboto, -apple-system, BlinkMacSystemFont, Helvetica, Arial, sans-serif" font-size="22" font-weight="700" fill="#2563EB" text-anchor="start">€8,900.00</text><line x1="446.6666666666667" y1="416" x2="446.6666666666667" y2="478" stroke="#E2E8F0" stroke-width="1" stroke-linecap="round"/><circle cx="464.6666666666667" cy="430" r="6" fill="#D97706"/><text x="480.6666666666667" y="435" font-family="'Segoe UI', Roboto, -apple-system, BlinkMacSystemFont, Helvetica, Arial, sans-serif" font-size="13.5" font-weight="500" fill="#475569" text-anchor="start">VAT deductible</text><text x="458.6666666666667" y="468" font-family="'Segoe UI', Roboto, -apple-system, BlinkMacSystemFont, Helvetica, Arial, sans-serif" font-size="22" font-weight="700" fill="#D97706" text-anchor="start">€351.90</text><line x1="857.3333333333334" y1="416" x2="857.3333333333334" y2="478" stroke="#E2E8F0" stroke-width="1" stroke-linecap="round"/><circle cx="875.3333333333334" cy="430" r="6" fill="#6366F1"/><text x="891.3333333333334" y="435" font-family="'Segoe UI', Roboto, -apple-system, BlinkMacSystemFont, Helvetica, Arial, sans-serif" font-size="13.5" font-weight="500" fill="#475569" text-anchor="start">VAT payable</text><text x="869.3333333333334" y="468" font-family="'Segoe UI', Roboto, -apple-system, BlinkMacSystemFont, Helvetica, Arial, sans-serif" font-size="22" font-weight="700" fill="#6366F1" text-anchor="start">€8,549.10</text><line x1="48" y1="500" x2="1232" y2="500" stroke="#F1F5F9" stroke-width="1" stroke-linecap="round"/><text x="48" y="530" font-family="'Segoe UI', Roboto, -apple-system, BlinkMacSystemFont, Helvetica, Arial, sans-serif" font-size="12" font-weight="700" fill="#64748B" text-anchor="start" letter-spacing="0.6">QUICK LINKS</text><rect x="48.0" y="546" width="284.0" height="56" rx="12" fill="#F8FAFC" stroke="#E2E8F0" stroke-width="1"/><rect x="62.0" y="558" width="32" height="32" rx="9" fill="#DBEAFE"/><g transform="translate(69.04,565.04) scale(0.7466666666666667)"><path fill="none" stroke="#2563EB" stroke-width="2" stroke-linecap="round" stroke-linejoin="round" d="M4 20V4"/><path fill="none" stroke="#2563EB" stroke-width="2" stroke-linecap="round" stroke-linejoin="round" d="M4 20h16"/><rect fill="#2563EB" x="7" y="12" width="3" height="6"/><rect fill="#2563EB" x="12" y="8" width="3" height="10"/><rect fill="#2563EB" x="17" y="5" width="3" height="13"/></g><text x="104.0" y="579" font-family="'Segoe UI', Roboto, -apple-system, BlinkMacSystemFont, Helvetica, Arial, sans-serif" font-size="13" font-weight="600" fill="#1E293B" text-anchor="start">Income statement</text><rect x="348.0" y="546" width="284.0" height="56" rx="12" fill="#F8FAFC" stroke="#E2E8F0" stroke-width="1"/><rect x="362.0" y="558" width="32" height="32" rx="9" fill="#EEF2FF"/><g transform="translate(369.04,565.04) scale(0.7466666666666667)"><path fill="none" stroke="#6366F1" stroke-width="2" stroke-linecap="round" stroke-linejoin="round" d="M5 3h11v18l-1.6-1.2L12.8 21 11.2 19.8 9 21V3z"/><path fill="none" stroke="#6366F1" stroke-width="2" stroke-linecap="round" stroke-linejoin="round" d="M19 7v14"/><path fill="none" stroke="#6366F1" stroke-width="2" stroke-linecap="round" stroke-linejoin="round" d="M8 8h5M8 12h5"/></g><text x="404.0" y="579" font-family="'Segoe UI', Roboto, -apple-system, BlinkMacSystemFont, Helvetica, Arial, sans-serif" font-size="13" font-weight="600" fill="#1E293B" text-anchor="start">VAT report</text><rect x="648.0" y="546" width="284.0" height="56" rx="12" fill="#F8FAFC" stroke="#E2E8F0" stroke-width="1"/><rect x="662.0" y="558" width="32" height="32" rx="9" fill="#CCFBF1"/><g transform="translate(669.04,565.04) scale(0.7466666666666667)"><rect fill="none" stroke="#0D9488" stroke-width="2" stroke-linecap="round" stroke-linejoin="round" x="3" y="6" width="18" height="13" rx="2.5"/><path fill="none" stroke="#0D9488" stroke-width="2" stroke-linecap="round" stroke-linejoin="round" d="M3 10h18"/><circle fill="#0D9488" cx="16.5" cy="14" r="1.4"/></g><text x="704.0" y="579" font-family="'Segoe UI', Roboto, -apple-system, BlinkMacSystemFont, Helvetica, Arial, sans-serif" font-size="13" font-weight="600" fill="#1E293B" text-anchor="start">Cash flow</text><rect x="948.0" y="546" width="284.0" height="56" rx="12" fill="#F8FAFC" stroke="#E2E8F0" stroke-width="1"/><rect x="962.0" y="558" width="32" height="32" rx="9" fill="#FEF3C7"/><g transform="translate(969.04,565.04) scale(0.7466666666666667)"><rect fill="none" stroke="#D97706" stroke-width="2" stroke-linecap="round" stroke-linejoin="round" x="4" y="4" width="16" height="16" rx="2"/><path fill="none" stroke="#D97706" stroke-width="2" stroke-linecap="round" stroke-linejoin="round" d="M8 9h8M8 13h8M8 17h5"/></g><text x="1004.0" y="579" font-family="'Segoe UI', Roboto, -apple-system, BlinkMacSystemFont, Helvetica, Arial, sans-serif" font-size="13" font-weight="600" fill="#1E293B" text-anchor="start">Sales detail</text>
<rect x="0" y="0" width="1280" height="60" rx="0" fill="url(#appbar)"/><g transform="translate(22,18)"><path fill="none" stroke="#FFFFFF" stroke-width="2" stroke-linecap="round" stroke-linejoin="round" d="M15 5l-7 7 7 7"/><path fill="none" stroke="#FFFFFF" stroke-width="2" stroke-linecap="round" stroke-linejoin="round" d="M8 12h11"/></g><text x="60" y="38" font-family="'Segoe UI', Roboto, -apple-system, BlinkMacSystemFont, Helvetica, Arial, sans-serif" font-size="19" font-weight="600" fill="#FFFFFF" text-anchor="start">Accounting</text><g transform="translate(1226,18) scale(0.9583333333333334)"><path fill="none" stroke="#FFFFFF" stroke-width="1.9" stroke-linecap="round" stroke-linejoin="round" d="M12 4v11M12 15l-4-4M12 15l4-4"/><path fill="none" stroke="#FFFFFF" stroke-width="1.9" stroke-linecap="round" stroke-linejoin="round" d="M5 19h14"/></g><g transform="translate(1184,18) scale(0.9583333333333334)"><rect fill="none" stroke="#FFFFFF" stroke-width="1.9" stroke-linecap="round" stroke-linejoin="round" x="4" y="5" width="16" height="16" rx="2"/><path fill="none" stroke="#FFFFFF" stroke-width="1.9" stroke-linecap="round" stroke-linejoin="round" d="M4 9h16M8 3v4M16 3v4"/></g>
</g></svg>