<svg xmlns="http://www.w3.org/2000/svg" viewBox="0 0 1280 676" width="1280" height="676" role="img">
<defs><linearGradient id="appbar" x1="0" y1="0" x2="1" y2="1"><stop offset="0" stop-color="#4361EE"/><stop offset="1" stop-color="#6366F1"/></linearGradient><filter id="cardShadow" x="-8%" y="-8%" width="116%" height="124%"><feDropShadow dx="0" dy="2" stdDeviation="5" flood-color="#0F172A" flood-opacity="0.06"/></filter><filter id="floatShadow" x="-20%" y="-20%" width="140%" height="150%"><feDropShadow dx="0" dy="8" stdDeviation="14" flood-color="#0F172A" flood-opacity="0.12"/></filter><linearGradient id="imgGrad" x1="0" y1="0" x2="0" y2="1"><stop offset="0" stop-color="#FFFFFF"/><stop offset="1" stop-color="#EEF2FF"/></linearGradient><clipPath id="round"><rect x="0" y="0" width="1280" height="676" rx="2"/></clipPath></defs>
<g clip-path="url(#round)">
<rect x="0" y="0" width="1280" height="676" rx="0" fill="#F8FAFC"/>
<rect x="24.0" y="80" width="296.0" height="116" rx="16" fill="#FFFFFF" stroke="#E2E8F0" stroke-width="1" filter="url(#cardShadow)"/><rect x="42.0" y="98" width="40" height="40" rx="11" fill="#DCFCE7"/><g transform="translate(50.8,106.8) scale(0.9333333333333332)"><rect fill="none" stroke="#16A34A" stroke-width="2" stroke-linecap="round" stroke-linejoin="round" x="3" y="7" width="15" height="10" rx="2"/><circle fill="none" stroke="#16A34A" stroke-width="2" stroke-linecap="round" stroke-linejoin="round" cx="10.5" cy="12" r="2.2"/><path fill="none" stroke="#16A34A" stroke-width="2" stroke-linecap="round" stroke-linejoin="round" d="M21 9v9a2 2 0 0 1-2 2H7"/></g><text x="42.0" y="164" font-family="'Segoe UI', Roboto, -apple-system, BlinkMacSystemFont, Helvetica, Arial, sans-serif" font-size="26" font-weight="700" fill="#0F172A" text-anchor="start">125 450,80 €</text><text x="42.0" y="184" font-family="'Segoe UI', Roboto, -apple-system, BlinkMacSystemFont, Helvetica, Arial, sans-serif" font-size="13" font-weight="500" fill="#64748B" text-anchor="start">Chiffre d'affaires total</text><rect x="336.0" y="80" width="296.0" height="116" rx="16" fill="#FFFFFF" stroke="#E2E8F0" stroke-width="1" filter="url(#cardShadow)"/><rect x="354.0" y="98" width="40" height="40" rx="11" fill="#DBEAFE"/><g transform="translate(362.8,106.8) scale(0.9333333333333332)"><path fill="none" stroke="#2563EB" stroke-width="2" stroke-linecap="round" stroke-linejoin="round" d="M5 3h11v18l-1.6-1.2L12.8 21 11.2 19.8 9 21V3z"/><path fill="none" stroke="#2563EB" stroke-width="2" stroke-linecap="round" stroke-linejoin="round" d="M19 7v14"/><path fill="none" stroke="#2563EB" stroke-width="2" stroke-linecap="round" stroke-linejoin="round" d="M8 8h5M8 12h5"/></g><text x="354.0" y="164" font-family="'Segoe UI', Roboto, -apple-system, BlinkMacSystemFont, Helvetica, Arial, sans-serif" font-size="26" font-weight="700" fill="#0F172A" text-anchor="start">287</text><text x="354.0" y="184" font-family="'Segoe UI', Roboto, -apple-system, BlinkMacSystemFont, Helvetica, Arial, sans-serif" font-size="13" font-weight="500" fill="#64748B" text-anchor="start">Total des ventes</text><rect x="648.0" y="80" width="296.0" height="116" rx="16" fill="#FFFFFF" stroke="#E2E8F0" stroke-width="1" filter="url(#cardShadow)"/><rect x="666.0" y="98" width="40" height="40" rx="11" fill="#EEF2FF"/><g transform="translate(674.8,106.8) scale(0.9333333333333332)"><circle fill="none" stroke="#6366F1" stroke-width="2" stroke-linecap="round" stroke-linejoin="round" cx="9" cy="9" r="2.8"/><path fill="none" stroke="#6366F1" stroke-width="2" stroke-linecap="round" stroke-linejoin="round" d="M3.5 19a5.5 5.5 0 0 1 11 0"/><path fill="none" stroke="#6366F1" stroke-width="2" stroke-linecap="round" stroke-linejoin="round" d="M16 7.2a2.8 2.8 0 0 1 0 5.6"/><path fill="none" stroke="#6366F1" stroke-width="2" stroke-linecap="round" stroke-linejoin="round" d="M16.5 14a5.5 5.5 0 0 1 4 5"/></g><text x="666.0" y="164" font-family="'Segoe UI', Roboto, -apple-system, BlinkMacSystemFont, Helvetica, Arial, sans-serif" font-size="26" font-weight="700" fill="#0F172A" text-anchor="start">8</text><text x="666.0" y="184" font-family="'Segoe UI', Roboto, -apple-system, BlinkMacSystemFont, Helvetica, Arial, sans-serif" font-size="13" font-weight="500" fill="#64748B" text-anchor="start">Caissiers actifs</text><rect x="960.0" y="80" width="296.0" height="116" rx="16" fill="#FFFFFF" stroke="#E2E8F0" stroke-width="1" filter="url(#cardShadow)"/><rect x="978.0" y="98" width="40" height="40" rx="11" fill="#FEF3C7"/><g transform="translate(986.8,106.8) scale(0.9333333333333332)"><path fill="none" stroke="#D97706" stroke-width="2" stroke-linecap="round" stroke-linejoin="round" d="M4 9h11a5 5 0 0 1 0 10H9"/><path fill="none" stroke="#D97706" stroke-width="2" stroke-linecap="round" stroke-linejoin="round" d="M4 9l4-4M4 9l4 4"/></g><text x="978.0" y="164" font-family="'Segoe UI', Roboto, -apple-system, BlinkMacSystemFont, Helvetica, Arial, sans-serif" font-size="26" font-weight="700" fill="#0F172A" text-anchor="start">12</text><text x="978.0" y="184" font-family="'Segoe UI', Roboto, -apple-system, BlinkMacSystemFont, Helvetica, Arial, sans-serif" font-size="13" font-weight="500" fill="#64748B" text-anchor="start">Remboursements</text><rect x="24" y="214" width="520" height="438" rx="16" fill="#FFFFFF" stroke="#E2E8F0" stroke-width="1" filter="url(#cardShadow)"/><text x="48" y="246" font-family="'Segoe UI', Roboto, -apple-system, BlinkMacSystemFont, Helvetica, Arial, sans-serif" font-size="14" font-weight="700" fill="#0F172A" text-anchor="start">Chiffre d'affaires par caissier</text><rect x="64" y="287.84" width="43.0" height="320.16" rx="6" fill="#EAB308"/><text x="85.5" y="626" font-family="'Segoe UI', Roboto, -apple-system, BlinkMacSystemFont, Helvetica, Arial, sans-serif" font-size="11" font-weight="600" fill="#64748B" text-anchor="middle">AM</text><rect x="119.0" y="329.59999999999997" width="43.0" height="278.40000000000003" rx="6" fill="#4361EE"/><text x="140.5" y="626" font-family="'Segoe UI', Roboto, -apple-system, BlinkMacSystemFont, Helvetica, Arial, sans-serif" font-size="11" font-weight="600" fill="#64748B" text-anchor="middle">BD</text><rect x="174.0" y="374.84" width="43.0" height="233.16000000000003" rx="6" fill="#4361EE"/><text x="195.5" y="626" font-family="'Segoe UI', Roboto, -apple-system, BlinkMacSystemFont, Helvetica, Arial, sans-serif" font-size="11" font-weight="600" fill="#64748B" text-anchor="middle">CL</text><rect x="229.0" y="406.16" width="43.0" height="201.83999999999997" rx="6" fill="#4361EE"/><text x="250.5" y="626" font-family="'Segoe UI', Roboto, -apple-system, BlinkMacSystemFont, Helvetica, Arial, sans-serif" font-size="11" font-weight="600" fill="#64748B" text-anchor="middle">DP</text><rect x="284.0" y="434.0" width="43.0" height="174.0" rx="6" fill="#4361EE"/><text x="305.5" y="626" font-family="'Segoe UI', Roboto, -apple-system, BlinkMacSystemFont, Helvetica, Arial, sans-serif" font-size="11" font-weight="600" fill="#64748B" text-anchor="middle">EB</text><rect x="339.0" y="465.32000000000005" width="43.0" height="142.67999999999998" rx="6" fill="#4361EE"/><text x="360.5" y="626" font-family="'Segoe UI', Roboto, -apple-system, BlinkMacSystemFont, Helvetica, Arial, sans-serif" font-size="11" font-weight="600" fill="#64748B" text-anchor="middle">FR</text><rect x="394.0" y="493.15999999999997" width="43.0" height="114.84" rx="6" fill="#4361EE"/><text x="415.5" y="626" font-family="'Segoe UI', Roboto, -apple-system, BlinkMacSystemFont, Helvetica, Arial, sans-serif" font-size="11" font-weight="600" fill="#64748B" text-anchor="middle">GM</text><rect x="449.0" y="524.48" width="43.0" height="83.52" rx="6" fill="#4361EE"/><text x="470.5" y="626" font-family="'Segoe UI', Roboto, -apple-system, BlinkMacSystemFont, Helvetica, Arial, sans-serif" font-size="11" font-weight="600" fill="#64748B" text-anchor="middle">HT</text><rect x="564" y="214" width="692" height="438" rx="16" fill="#FFFFFF" stroke="#E2E8F0" stroke-width="1" filter="url(#cardShadow)"/><text x="588" y="246" font-family="'Segoe UI', Roboto, -apple-system, BlinkMacSystemFont, Helvetica, Arial, sans-serif" font-size="14" font-weight="700" fill="#0F172A" text-anchor="start">Classement des caissiers</text><line x1="588" y1="260" x2="1232" y2="260" stroke="#E2E8F0" stroke-width="1" stroke-linecap="round"/><circle cx="606" cy="292.0" r="16" fill="#EAB308"/><text x="606" y="297.0" font-family="'Segoe UI', Roboto, -apple-system, BlinkMacSystemFont, Helvetica, Arial, sans-serif" font-size="14" font-weight="700" fill="#FFFFFF" text-anchor="middle">1</text><text x="636" y="288.0" font-family="'Segoe UI', Roboto, -apple-system, BlinkMacSystemFont, Helvetica, Arial, sans-serif" font-size="14" font-weight="600" fill="#0F172A" text-anchor="start">Alice Martin</text><text x="636" y="306.0" font-family="'Segoe UI', Roboto, -apple-system, BlinkMacSystemFont, Helvetica, Arial, sans-serif" font-size="12" font-weight="400" fill="#64748B" text-anchor="start">45 ventes  -  panier 45,50 €</text><text x="1232" y="297.0" font-family="'Segoe UI', Roboto, -apple-system, BlinkMacSystemFont, Helvetica, Arial, sans-serif" font-size="15" font-weight="700" fill="#16A34A" text-anchor="end">2 047,50 €</text><line x1="588" y1="324" x2="1232" y2="324" stroke="#F1F5F9" stroke-width="1" stroke-linecap="round"/><circle cx="606" cy="356.0" r="16" fill="#94A3B8"/><text x="606" y="361.0" font-family="'Segoe UI', Roboto, -apple-system, BlinkMacSystemFont, Helvetica, Arial, sans-serif" font-size="14" font-weight="700" fill="#FFFFFF" text-anchor="middle">2</text><text x="636" y="352.0" font-family="'Segoe UI', Roboto, -apple-system, BlinkMacSystemFont, Helvetica, Arial, sans-serif" font-size="14" font-weight="600" fill="#0F172A" text-anchor="start">Bernard Durand</text><text x="636" y="370.0" font-family="'Segoe UI', Roboto, -apple-system, BlinkMacSystemFont, Helvetica, Arial, sans-serif" font-size="12" font-weight="400" fill="#64748B" text-anchor="start">42 ventes  -  panier 41,30 €</text><text x="1232" y="361.0" font-family="'Segoe UI', Roboto, -apple-system, BlinkMacSystemFont, Helvetica, Arial, sans-serif" font-size="15" font-weight="700" fill="#16A34A" text-anchor="end">1 734,60 €</text><line x1="588" y1="388" x2="1232" y2="388" stroke="#F1F5F9" stroke-width="1" stroke-linecap="round"/><circle cx="606" cy="420.0" r="16" fill="#B45309"/><text x="606" y="425.0" font-family="'Segoe UI', Roboto, -apple-system, BlinkMacSystemFont, Helvetica, Arial, sans-serif" font-size="14" font-weight="700" fill="#FFFFFF" text-anchor="middle">3</text><text x="636" y="416.0" font-family="'Segoe UI', Roboto, -apple-system, BlinkMacSystemFont, Helvetica, Arial, sans-serif" font-size="14" font-weight="600" fill="#0F172A" text-anchor="start">Christine Leroy</text><text x="636" y="434.0" font-family="'Segoe UI', Roboto, -apple-system, BlinkMacSystemFont, Helvetica, Arial, sans-serif" font-size="12" font-weight="400" fill="#64748B" text-anchor="start">38 ventes  -  panier 38,20 €</text><text x="1232" y="425.0" font-family="'Segoe UI', Roboto, -apple-system, BlinkMacSystemFont, Helvetica, Arial, sans-serif" font-size="15" font-weight="700" fill="#16A34A" text-anchor="end">1 451,60 €</text><line x1="588" y1="452" x2="1232" y2="452" stroke="#F1F5F9" stroke-width="1" stroke-linecap="round"/><circle cx="606" cy="484.0" r="16" fill="#94A3B8"/><text x="606" y="489.0" font-family="'Segoe UI', Roboto, -apple-system, BlinkMacSystemFont, Helvetica, Arial, sans-serif" font-size="14" font-weight="700" fill="#FFFFFF" text-anchor="middle">4</text><text x="636" y="480.0" font-family="'Segoe UI', Roboto, -apple-system, BlinkMacSystemFont, Helvetica, Arial, sans-serif" font-size="14" font-weight="600" fill="#0F172A" text-anchor="start">David Petit</text><text x="636" y="498.0" font-family="'Segoe UI', Roboto, -apple-system, BlinkMacSystemFont, Helvetica, Arial, sans-serif" font-size="12" font-weight="400" fill="#64748B" text-anchor="start">35 ventes  -  panier 36,15 €</text><text x="1232" y="489.0" font-family="'Segoe UI', Roboto, -apple-system, BlinkMacSystemFont, Helvetica, Arial, sans-serif" font-size="15" font-weight="700" fill="#16A34A" text-anchor="end">1 265,25 €</text><line x1="588" y1="516" x2="1232" y2="516" stroke="#F1F5F9" stroke-width="1" stroke-linecap="round"/><circle cx="606" cy="548.0" r="16" fill="#94A3B8"/><text x="606" y="553.0" font-family="'Segoe UI', Roboto, -apple-system, BlinkMacSystemFont, Helvetica, Arial, sans-serif" font-size="14" font-weight="700" fill="#FFFFFF" text-anchor="middle">5</text><text x="636" y="544.0" font-family="'Segoe UI', Roboto, -apple-system, BlinkMacSystemFont, Helvetica, Arial, sans-serif" font-size="14" font-weight="600" fill="#0F172A" text-anchor="start">Éva Blanc</text><text x="636" y="562.0" font-family="'Segoe UI', Roboto, -apple-system, BlinkMacSystemFont, Helvetica, Arial, sans-serif" font-size="12" font-weight="400" fill="#64748B" text-anchor="start">32 ventes  -  panier 33,80 €</text><text x="1232" y="553.0" font-family="'Segoe UI', Roboto, -apple-system, BlinkMacSystemFont, Helvetica, Arial, sans-serif" font-size="15" font-weight="700" fill="#16A34A" text-anchor="end">1 081,60 €</text><line x1="588" y1="580" x2="1232" y2="580" stroke="#F1F5F9" stroke-width="1" stroke-linecap="round"/>
<rect x="0" y="0" width="1280" height="60" rx="0" fill="url(#appbar)"/><g transform="translate(22,18)"><path fill="none" stroke="#FFFFFF" stroke-width="2" stroke-linecap="round" stroke-linejoin="round" d="M15 5l-7 7 7 7"/><path fill="none" stroke="#FFFFFF" stroke-width="2" stroke-linecap="round" stroke-linejoin="round" d="M8 12h11"/></g><text x="60" y="38" font-family="'Segoe UI', Roboto, -apple-system, BlinkMacSystemFont, Helvetica, Arial, sans-serif" font-size="19" font-weight="600" fill="#FFFFFF" text-anchor="start">Performance des caissiers</text><g transform="translate(1226,18) scale(0.9583333333333334)"><path fill="none" stroke="#FFFFFF" stroke-width="1.9" stroke-linecap="round" stroke-linejoin="round" d="M12 4v11M12 15l-4-4M12 15l4-4"/><path fill="none" stroke="#FFFFFF" stroke-width="1.9" stroke-linecap="round" stroke-linejoin="round" d="M5 19h14"/></g><g transform="translate(1184,18) scale(0.9583333333333334)"><rect fill="none" stroke="#FFFFFF" stroke-width="1.9" stroke-linecap="round" stroke-linejoin="round" x="4" y="5" width="16" height="16" rx="2"/><path fill="none" stroke="#FFFFFF" stroke-width="1.9" stroke-linecap="round" stroke-linejoin="round" d="M4 9h16M8 3v4M16 3v4"/></g>
</g></svg>