<svg xmlns="http://www.w3.org/2000/svg" viewBox="0 0 1280 676" width="1280" height="676" role="img">
<defs><linearGradient id="appbar" x1="0" y1="0" x2="1" y2="1"><stop offset="0" stop-color="#4361EE"/><stop offset="1" stop-color="#6366F1"/></linearGradient><filter id="cardShadow" x="-8%" y="-8%" width="116%" height="124%"><feDropShadow dx="0" dy="2" stdDeviation="5" flood-color="#0F172A" flood-opacity="0.06"/></filter><filter id="floatShadow" x="-20%" y="-20%" width="140%" height="150%"><feDropShadow dx="0" dy="8" stdDeviation="14" flood-color="#0F172A" flood-opacity="0.12"/></filter><linearGradient id="imgGrad" x1="0" y1="0" x2="0" y2="1"><stop offset="0" stop-color="#FFFFFF"/><stop offset="1" stop-color="#EEF2FF"/></linearGradient><clipPath id="round"><rect x="0" y="0" width="1280" height="676" rx="2"/></clipPath></defs>
<g clip-path="url(#round)">
<rect x="0" y="0" width="1280" height="676" rx="0" fill="#F8FAFC"/>
<rect x="0" y="60" width="1280" height="46" rx="0" fill="#FFFFFF" stroke="#E2E8F0" stroke-width="1"/><text x="28" y="89" font-family="'Segoe UI', Roboto, -apple-system, BlinkMacSystemFont, Helvetica, Arial, sans-serif" font-size="14" font-weight="700" fill="#4361EE" text-anchor="start">Vue d'ensemble</text><rect x="28" y="102" width="112" height="3" rx="2" fill="#4361EE"/><text x="176" y="89" font-family="'Segoe UI', Roboto, -apple-system, BlinkMacSystemFont, Helvetica, Arial, sans-serif" font-size="14" font-weight="500" fill="#64748B" text-anchor="start">Liste des transactions</text><text x="388" y="89" font-family="'Segoe UI', Roboto, -apple-system, BlinkMacSystemFont, Helvetica, Arial, sans-serif" font-size="14" font-weight="500" fill="#64748B" text-anchor="start">Rapports</text><rect x="28.0" y="128" width="294.0" height="116" rx="16" fill="#FFFFFF" stroke="#E2E8F0" stroke-width="1" filter="url(#cardShadow)"/><rect x="46.0" y="146" width="40" height="40" rx="11" fill="#DCFCE7"/><g transform="translate(54.8,154.8) scale(0.9333333333333332)"><path fill="none" stroke="#16A34A" stroke-width="2" stroke-linecap="round" stroke-linejoin="round" d="M3 17l6-6 4 4 8-8"/><path fill="none" stroke="#16A34A" stroke-width="2" stroke-linecap="round" stroke-linejoin="round" d="M21 7v5M21 7h-5"/></g><text x="46.0" y="212" font-family="'Segoe UI', Roboto, -apple-system, BlinkMacSystemFont, Helvetica, Arial, sans-serif" font-size="26" font-weight="700" fill="#0F172A" text-anchor="start">874 655,08 €</text><text x="46.0" y="232" font-family="'Segoe UI', Roboto, -apple-system, BlinkMacSystemFont, Helvetica, Arial, sans-serif" font-size="13" font-weight="500" fill="#64748B" text-anchor="start">Chiffre d'affaires total</text><rect x="338.0" y="128" width="294.0" height="116" rx="16" fill="#FFFFFF" stroke="#E2E8F0" stroke-width="1" filter="url(#cardShadow)"/><rect x="356.0" y="146" width="40" height="40" rx="11" fill="#DBEAFE"/><g transform="translate(364.8,154.8) scale(0.9333333333333332)"><path fill="none" stroke="#2563EB" stroke-width="2" stroke-linecap="round" stroke-linejoin="round" d="M6 3h12v18l-2.2-1.5L13.6 21 11.4 19.5 9.2 21 7 19.5 6 21z"/><path fill="none" stroke="#2563EB" stroke-width="2" stroke-linecap="round" stroke-linejoin="round" d="M9 8h6M9 12h6"/></g><text x="356.0" y="212" font-family="'Segoe UI', Roboto, -apple-system, BlinkMacSystemFont, Helvetica, Arial, sans-serif" font-size="26" font-weight="700" fill="#0F172A" text-anchor="start">219</text><text x="356.0" y="232" font-family="'Segoe UI', Roboto, -apple-system, BlinkMacSystemFont, Helvetica, Arial, sans-serif" font-size="13" font-weight="500" fill="#64748B" text-anchor="start">Transactions</text><rect x="648.0" y="128" width="294.0" height="116" rx="16" fill="#FFFFFF" stroke="#E2E8F0" stroke-width="1" filter="url(#cardShadow)"/><rect x="666.0" y="146" width="40" height="40" rx="11" fill="#FEF3C7"/><g transform="translate(674.8,154.8) scale(0.9333333333333332)"><rect fill="none" stroke="#D97706" stroke-width="2" stroke-linecap="round" stroke-linejoin="round" x="3" y="3" width="18" height="18" rx="2"/><path fill="none" stroke="#D97706" stroke-width="2" stroke-linecap="round" stroke-linejoin="round" d="M8 15v-3M12 15V9M16 15v-5"/></g><text x="666.0" y="212" font-family="'Segoe UI', Roboto, -apple-system, BlinkMacSystemFont, Helvetica, Arial, sans-serif" font-size="26" font-weight="700" fill="#0F172A" text-anchor="start">3 993,86 €</text><text x="666.0" y="232" font-family="'Segoe UI', Roboto, -apple-system, BlinkMacSystemFont, Helvetica, Arial, sans-serif" font-size="13" font-weight="500" fill="#64748B" text-anchor="start">Montant moyen / transaction</text><rect x="958.0" y="128" width="294.0" height="116" rx="16" fill="#FFFFFF" stroke="#E2E8F0" stroke-width="1" filter="url(#cardShadow)"/><rect x="976.0" y="146" width="40" height="40" rx="11" fill="#EEF2FF"/><g transform="translate(984.8,154.8) scale(0.9333333333333332)"><rect fill="none" stroke="#6366F1" stroke-width="2" stroke-linecap="round" stroke-linejoin="round" x="3" y="7" width="15" height="10" rx="2"/><circle fill="none" stroke="#6366F1" stroke-width="2" stroke-linecap="round" stroke-linejoin="round" cx="10.5" cy="12" r="2.2"/><path fill="none" stroke="#6366F1" stroke-width="2" stroke-linecap="round" stroke-linejoin="round" d="M21 9v9a2 2 0 0 1-2 2H7"/></g><text x="976.0" y="212" font-family="'Segoe UI', Roboto, -apple-system, BlinkMacSystemFont, Helvetica, Arial, sans-serif" font-size="26" font-weight="700" fill="#0F172A" text-anchor="start">3 types</text><text x="976.0" y="232" font-family="'Segoe UI', Roboto, -apple-system, BlinkMacSystemFont, Helvetica, Arial, sans-serif" font-size="13" font-weight="500" fill="#64748B" text-anchor="start">Moyens de paiement</text><rect x="28" y="266" width="1224" height="386" rx="16" fill="#FFFFFF" stroke="#E2E8F0" stroke-width="1" filter="url(#cardShadow)"/><text x="48" y="296" font-family="'Segoe UI', Roboto, -apple-system, BlinkMacSystemFont, Helvetica, Arial, sans-serif" font-size="13" font-weight="700" fill="#4361EE" text-anchor="start" letter-spacing="0.5">RÉPARTITION DES PAIEMENTS</text><text x="48" y="316" font-family="'Segoe UI', Roboto, -apple-system, BlinkMacSystemFont, Helvetica, Arial, sans-serif" font-size="13" font-weight="400" fill="#64748B" text-anchor="start">Répartition des ventes par méthode de paiement</text><path d="M 200.0 391.0 A 78 78 0 1 1 122.0 469.0 L 154.0 469.0 A 46 46 0 1 0 200.0 423.0 Z" fill="#16A34A"/><path d="M 122.0 469.0 A 78 78 0 0 1 144.8 413.8 L 167.5 436.5 A 46 46 0 0 0 154.0 469.0 Z" fill="#0D9488"/><path d="M 144.8 413.8 A 78 78 0 0 1 200.0 391.0 L 200.0 423.0 A 46 46 0 0 0 167.5 436.5 Z" fill="#2563EB"/><text x="200" y="467.0" font-family="'Segoe UI', Roboto, -apple-system, BlinkMacSystemFont, Helvetica, Arial, sans-serif" font-size="22" font-weight="700" fill="#0F172A" text-anchor="middle">874,7k</text><text x="200" y="487.0" font-family="'Segoe UI', Roboto, -apple-system, BlinkMacSystemFont, Helvetica, Arial, sans-serif" font-size="13" font-weight="400" fill="#64748B" text-anchor="middle">Total</text><circle cx="366" cy="342" r="6" fill="#16A34A"/><text x="382" y="347" font-family="'Segoe UI', Roboto, -apple-system, BlinkMacSystemFont, Helvetica, Arial, sans-serif" font-size="14" font-weight="600" fill="#1E293B" text-anchor="start">Espèces</text><text x="1204" y="347" font-family="'Segoe UI', Roboto, -apple-system, BlinkMacSystemFont, Helvetica, Arial, sans-serif" font-size="14" font-weight="700" fill="#0F172A" text-anchor="end">655 633,29 €</text><rect x="360" y="358" width="824" height="8" rx="4" fill="#F1F5F9"/><rect x="360" y="358" width="618.0" height="8" rx="4" fill="#16A34A"/><text x="1204" y="382" font-family="'Segoe UI', Roboto, -apple-system, BlinkMacSystemFont, Helvetica, Arial, sans-serif" font-size="12" font-weight="400" fill="#64748B" text-anchor="end">75,0%</text><circle cx="366" cy="404" r="6" fill="#0D9488"/><text x="382" y="409" font-family="'Segoe UI', Roboto, -apple-system, BlinkMacSystemFont, Helvetica, Arial, sans-serif" font-size="14" font-weight="600" fill="#1E293B" text-anchor="start">Virement</text><text x="1204" y="409" font-family="'Segoe UI', Roboto, -apple-system, BlinkMacSystemFont, Helvetica, Arial, sans-serif" font-size="14" font-weight="700" fill="#0F172A" text-anchor="end">109 613,58 €</text><rect x="360" y="420" width="824" height="8" rx="4" fill="#F1F5F9"/><rect x="360" y="420" width="103.0" height="8" rx="4" fill="#0D9488"/><text x="1204" y="444" font-family="'Segoe UI', Roboto, -apple-system, BlinkMacSystemFont, Helvetica, Arial, sans-serif" font-size="12" font-weight="400" fill="#64748B" text-anchor="end">12,5%</text><circle cx="366" cy="466" r="6" fill="#2563EB"/><text x="382" y="471" font-family="'Segoe UI', Roboto, -apple-system, BlinkMacSystemFont, Helvetica, Arial, sans-serif" font-size="14" font-weight="600" fill="#1E293B" text-anchor="start">Carte bancaire</text><text x="1204" y="471" font-family="'Segoe UI', Roboto, -apple-system, BlinkMacSystemFont, Helvetica, Arial, sans-serif" font-size="14" font-weight="700" fill="#0F172A" text-anchor="end">109 408,21 €</text><rect x="360" y="482" width="824" height="8" rx="4" fill="#F1F5F9"/><rect x="360" y="482" width="103.0" height="8" rx="4" fill="#2563EB"/><text x="1204" y="506" font-family="'Segoe UI', Roboto, -apple-system, BlinkMacSystemFont, Helvetica, Arial, sans-serif" font-size="12" font-weight="400" fill="#64748B" text-anchor="end">12,5%</text>
<rect x="0" y="0" width="1280" height="60" rx="0" fill="url(#appbar)"/><g transform="translate(22,18)"><path fill="none" stroke="#FFFFFF" stroke-width="2" stroke-linecap="round" stroke-linejoin="round" d="M15 5l-7 7 7 7"/><path fill="none" stroke="#FFFFFF" stroke-width="2" stroke-linecap="round" stroke-linejoin="round" d="M8 12h11"/></g><text x="60" y="38" font-family="'Segoe UI', Roboto, -apple-system, BlinkMacSystemFont, Helvetica, Arial, sans-serif" font-size="19" font-weight="600" fill="#FFFFFF" text-anchor="start">Tableau de bord des transactions</text><g transform="translate(1226,18) scale(0.9583333333333334)"><path fill="none" stroke="#FFFFFF" stroke-width="1.9" stroke-linecap="round" stroke-linejoin="round" d="M4 7h10M18 7h2M4 17h2M10 17h10"/><circle fill="none" stroke="#FFFFFF" stroke-width="1.9" stroke-linecap="round" stroke-linejoin="round" cx="16" cy="7" r="2.2"/><circle fill="none" stroke="#FFFFFF" stroke-width="1.9" stroke-linecap="round" stroke-linejoin="round" cx="8" cy="17" r="2.2"/></g><g transform="translate(1184,18) scale(0.9583333333333334)"><path fill="none" stroke="#FFFFFF" stroke-width="1.9" stroke-linecap="round" stroke-linejoin="round" d="M12 4v11M12 15l-4-4M12 15l4-4"/><path fill="none" stroke="#FFFFFF" stroke-width="1.9" stroke-linecap="round" stroke-linejoin="round" d="M5 19h14"/></g>
</g></svg>