<svg xmlns="http://www.w3.org/2000/svg" viewBox="0 0 1280 676" width="1280" height="676" role="img">
<defs><linearGradient id="appbar" x1="0" y1="0" x2="1" y2="1"><stop offset="0" stop-color="#4361EE"/><stop offset="1" stop-color="#6366F1"/></linearGradient><filter id="cardShadow" x="-8%" y="-8%" width="116%" height="124%"><feDropShadow dx="0" dy="2" stdDeviation="5" flood-color="#0F172A" flood-opacity="0.06"/></filter><filter id="floatShadow" x="-20%" y="-20%" width="140%" height="150%"><feDropShadow dx="0" dy="8" stdDeviation="14" flood-color="#0F172A" flood-opacity="0.12"/></filter><linearGradient id="imgGrad" x1="0" y1="0" x2="0" y2="1"><stop offset="0" stop-color="#FFFFFF"/><stop offset="1" stop-color="#EEF2FF"/></linearGradient><clipPath id="round"><rect x="0" y="0" width="1280" height="676" rx="2"/></clipPath></defs>
<g clip-path="url(#round)">
<rect x="0" y="0" width="1280" height="676" rx="0" fill="#F8FAFC"/>
<rect x="24" y="84" width="560" height="568" rx="16" fill="#FFFFFF" stroke="#E2E8F0" stroke-width="1" filter="url(#cardShadow)"/><text x="60" y="134" font-family="'Segoe UI', Roboto, -apple-system, BlinkMacSystemFont, Helvetica, Arial, sans-serif" font-size="22" font-weight="700" fill="#0F172A" text-anchor="start" letter-spacing="1">RECHNUNG</text><text x="60" y="156" font-family="'Segoe UI', Roboto, -apple-system, BlinkMacSystemFont, Helvetica, Arial, sans-serif" font-size="13" font-weight="400" fill="#64748B" text-anchor="start">Nr. RE-001  -  15.01.2026</text><rect x="488" y="114" width="60" height="60" rx="12" fill="#EEF2FF"/><g transform="translate(500,126) scale(1.5)"><path fill="#4361EE" d="M5 4h9.5a4.5 4.5 0 0 1 1.3 8.8A4.8 4.8 0 0 1 14 21H5z"/><path fill="#FFFFFF" d="M8 7.5h5.6a1.8 1.8 0 0 1 0 3.6H8zM8 13h5.4a2 2 0 0 1 0 4H8z"/></g><line x1="60" y1="176" x2="548" y2="176" stroke="#E2E8F0" stroke-width="1" stroke-linecap="round"/><text x="60" y="204" font-family="'Segoe UI', Roboto, -apple-system, BlinkMacSystemFont, Helvetica, Arial, sans-serif" font-size="11" font-weight="700" fill="#94A3B8" text-anchor="start" letter-spacing="0.4">Aussteller</text><text x="60" y="224" font-family="'Segoe UI', Roboto, -apple-system, BlinkMacSystemFont, Helvetica, Arial, sans-serif" font-size="14" font-weight="600" fill="#0F172A" text-anchor="start">BizCoRa Demo GmbH</text><text x="60" y="242" font-family="'Segoe UI', Roboto, -apple-system, BlinkMacSystemFont, Helvetica, Arial, sans-serif" font-size="12" font-weight="400" fill="#64748B" text-anchor="start">Handelsstraße 12, Paris</text><text x="548" y="204" font-family="'Segoe UI', Roboto, -apple-system, BlinkMacSystemFont, Helvetica, Arial, sans-serif" font-size="11" font-weight="700" fill="#94A3B8" text-anchor="end" letter-spacing="0.4">Kunde</text><text x="548" y="224" font-family="'Segoe UI', Roboto, -apple-system, BlinkMacSystemFont, Helvetica, Arial, sans-serif" font-size="14" font-weight="600" fill="#0F172A" text-anchor="end">Dupont SA</text><text x="548" y="242" font-family="'Segoe UI', Roboto, -apple-system, BlinkMacSystemFont, Helvetica, Arial, sans-serif" font-size="12" font-weight="400" fill="#64748B" text-anchor="end">contact@dupont.fr</text><rect x="60" y="272" width="488" height="26" rx="6" fill="#F1F5F9"/><text x="72" y="290" font-family="'Segoe UI', Roboto, -apple-system, BlinkMacSystemFont, Helvetica, Arial, sans-serif" font-size="11" font-weight="700" fill="#475569" text-anchor="start">Bezeichnung</text><text x="384" y="290" font-family="'Segoe UI', Roboto, -apple-system, BlinkMacSystemFont, Helvetica, Arial, sans-serif" font-size="11" font-weight="700" fill="#475569" text-anchor="start">Menge</text><text x="536" y="290" font-family="'Segoe UI', Roboto, -apple-system, BlinkMacSystemFont, Helvetica, Arial, sans-serif" font-size="11" font-weight="700" fill="#475569" text-anchor="end">Gesamt</text><text x="72" y="330" font-family="'Segoe UI', Roboto, -apple-system, BlinkMacSystemFont, Helvetica, Arial, sans-serif" font-size="12.5" font-weight="400" fill="#1E293B" text-anchor="start">Bio-Olivenöl</text><text x="388" y="330" font-family="'Segoe UI', Roboto, -apple-system, BlinkMacSystemFont, Helvetica, Arial, sans-serif" font-size="12.5" font-weight="400" fill="#475569" text-anchor="start">10</text><text x="536" y="330" font-family="'Segoe UI', Roboto, -apple-system, BlinkMacSystemFont, Helvetica, Arial, sans-serif" font-size="12.5" font-weight="600" fill="#0F172A" text-anchor="end">129,90 €</text><line x1="60" y1="342" x2="548" y2="342" stroke="#F1F5F9" stroke-width="1" stroke-linecap="round"/><text x="72" y="362" font-family="'Segoe UI', Roboto, -apple-system, BlinkMacSystemFont, Helvetica, Arial, sans-serif" font-size="12.5" font-weight="400" fill="#1E293B" text-anchor="start">Espresso 250g</text><text x="388" y="362" font-family="'Segoe UI', Roboto, -apple-system, BlinkMacSystemFont, Helvetica, Arial, sans-serif" font-size="12.5" font-weight="400" fill="#475569" text-anchor="start">20</text><text x="536" y="362" font-family="'Segoe UI', Roboto, -apple-system, BlinkMacSystemFont, Helvetica, Arial, sans-serif" font-size="12.5" font-weight="600" fill="#0F172A" text-anchor="end">175,00 €</text><line x1="60" y1="374" x2="548" y2="374" stroke="#F1F5F9" stroke-width="1" stroke-linecap="round"/><text x="72" y="394" font-family="'Segoe UI', Roboto, -apple-system, BlinkMacSystemFont, Helvetica, Arial, sans-serif" font-size="12.5" font-weight="400" fill="#1E293B" text-anchor="start">Kastanienhonig</text><text x="388" y="394" font-family="'Segoe UI', Roboto, -apple-system, BlinkMacSystemFont, Helvetica, Arial, sans-serif" font-size="12.5" font-weight="400" fill="#475569" text-anchor="start">15</text><text x="536" y="394" font-family="'Segoe UI', Roboto, -apple-system, BlinkMacSystemFont, Helvetica, Arial, sans-serif" font-size="12.5" font-weight="600" fill="#0F172A" text-anchor="end">149,85 €</text><line x1="60" y1="406" x2="548" y2="406" stroke="#F1F5F9" stroke-width="1" stroke-linecap="round"/><text x="354" y="438" font-family="'Segoe UI', Roboto, -apple-system, BlinkMacSystemFont, Helvetica, Arial, sans-serif" font-size="14" font-weight="700" fill="#0F172A" text-anchor="start">Gesamt (brutto)</text><text x="548" y="438" font-family="'Segoe UI', Roboto, -apple-system, BlinkMacSystemFont, Helvetica, Arial, sans-serif" font-size="16" font-weight="700" fill="#4361EE" text-anchor="end">1.250,00 €</text><rect x="604" y="84" width="652" height="568" rx="16" fill="#FFFFFF" stroke="#E2E8F0" stroke-width="1" filter="url(#cardShadow)"/><rect x="900.0" y="114" width="60" height="60" rx="16" fill="#EEF2FF"/><g transform="translate(913.2,127.2) scale(1.4000000000000001)"><rect fill="none" stroke="#4361EE" stroke-width="2" stroke-linecap="round" stroke-linejoin="round" x="3" y="5" width="18" height="14" rx="2"/><path fill="none" stroke="#4361EE" stroke-width="2" stroke-linecap="round" stroke-linejoin="round" d="M3.5 7l8.5 6 8.5-6"/></g><text x="930.0" y="202" font-family="'Segoe UI', Roboto, -apple-system, BlinkMacSystemFont, Helvetica, Arial, sans-serif" font-size="18" font-weight="700" fill="#0F172A" text-anchor="middle">Per E-Mail senden</text><text x="930.0" y="224" font-family="'Segoe UI', Roboto, -apple-system, BlinkMacSystemFont, Helvetica, Arial, sans-serif" font-size="13" font-weight="400" fill="#64748B" text-anchor="middle">Das PDF wird automatisch angehängt</text><text x="632" y="252" font-family="'Segoe UI', Roboto, -apple-system, BlinkMacSystemFont, Helvetica, Arial, sans-serif" font-size="12" font-weight="600" fill="#64748B" text-anchor="start">Empfänger</text><rect x="632" y="260" width="596" height="42" rx="10" fill="#F8FAFC" stroke="#E2E8F0" stroke-width="1"/><text x="646" y="286" font-family="'Segoe UI', Roboto, -apple-system, BlinkMacSystemFont, Helvetica, Arial, sans-serif" font-size="13.5" font-weight="500" fill="#1E293B" text-anchor="start">contact@dupont.fr</text><text x="632" y="318" font-family="'Segoe UI', Roboto, -apple-system, BlinkMacSystemFont, Helvetica, Arial, sans-serif" font-size="12" font-weight="600" fill="#64748B" text-anchor="start">Betreff</text><rect x="632" y="326" width="596" height="42" rx="10" fill="#F8FAFC" stroke="#E2E8F0" stroke-width="1"/><text x="646" y="352" font-family="'Segoe UI', Roboto, -apple-system, BlinkMacSystemFont, Helvetica, Arial, sans-serif" font-size="13.5" font-weight="500" fill="#1E293B" text-anchor="start">Ihre Rechnung RE-001</text><text x="632" y="384" font-family="'Segoe UI', Roboto, -apple-system, BlinkMacSystemFont, Helvetica, Arial, sans-serif" font-size="12" font-weight="600" fill="#64748B" text-anchor="start">Nachricht</text><rect x="632" y="392" width="596" height="66" rx="10" fill="#F8FAFC" stroke="#E2E8F0" stroke-width="1"/><text x="646" y="416" font-family="'Segoe UI', Roboto, -apple-system, BlinkMacSystemFont, Helvetica, Arial, sans-serif" font-size="13" font-weight="400" fill="#475569" text-anchor="start">Hallo, anbei finden Sie</text><text x="646" y="436" font-family="'Segoe UI', Roboto, -apple-system, BlinkMacSystemFont, Helvetica, Arial, sans-serif" font-size="13" font-weight="400" fill="#475569" text-anchor="start">Ihre Rechnung. Mit freundlichen Grüßen.</text><rect x="632" y="474" width="596" height="44" rx="10" fill="#FEE2E2"/><g transform="translate(646,484) scale(1.0)"><path fill="none" stroke="#DC2626" stroke-width="2" stroke-linecap="round" stroke-linejoin="round" d="M7 3h7l4 4v14H7z"/><path fill="none" stroke="#DC2626" stroke-width="2" stroke-linecap="round" stroke-linejoin="round" d="M14 3v4h4"/><path fill="none" stroke="#DC2626" stroke-width="2" stroke-linecap="round" stroke-linejoin="round" d="M10 13h.5a1.3 1.3 0 0 1 0 2.6H10zM10 13v4M14.5 13H16M14.5 13v4M14.5 15.2H16"/></g><text x="678" y="502" font-family="'Segoe UI', Roboto, -apple-system, BlinkMacSystemFont, Helvetica, Arial, sans-serif" font-size="13" font-weight="600" fill="#B91C1C" text-anchor="start">rechnung-RE-001.pdf</text><rect x="632" y="534" width="596" height="48" rx="12" fill="#4361EE"/><g transform="translate(856.0,547) scale(0.9166666666666666)"><rect fill="none" stroke="#FFFFFF" stroke-width="2" stroke-linecap="round" stroke-linejoin="round" x="3" y="5" width="18" height="14" rx="2"/><path fill="none" stroke="#FFFFFF" stroke-width="2" stroke-linecap="round" stroke-linejoin="round" d="M3.5 7l8.5 6 8.5-6"/></g><text x="944.0" y="564" font-family="'Segoe UI', Roboto, -apple-system, BlinkMacSystemFont, Helvetica, Arial, sans-serif" font-size="15" font-weight="700" fill="#FFFFFF" text-anchor="middle">Senden</text>
<rect x="0" y="0" width="1280" height="60" rx="0" fill="url(#appbar)"/><g transform="translate(22,18)"><path fill="none" stroke="#FFFFFF" stroke-width="2" stroke-linecap="round" stroke-linejoin="round" d="M15 5l-7 7 7 7"/><path fill="none" stroke="#FFFFFF" stroke-width="2" stroke-linecap="round" stroke-linejoin="round" d="M8 12h11"/></g><text x="60" y="38" font-family="'Segoe UI', Roboto, -apple-system, BlinkMacSystemFont, Helvetica, Arial, sans-serif" font-size="19" font-weight="600" fill="#FFFFFF" text-anchor="start">Rechnung RE-001</text><g transform="translate(1226,18) scale(0.9583333333333334)"><path fill="none" stroke="#FFFFFF" stroke-width="1.9" stroke-linecap="round" stroke-linejoin="round" d="M7 8V3h10v5"/><rect fill="none" stroke="#FFFFFF" stroke-width="1.9" stroke-linecap="round" stroke-linejoin="round" x="4" y="8" width="16" height="8" rx="2"/><rect fill="none" stroke="#FFFFFF" stroke-width="1.9" stroke-linecap="round" stroke-linejoin="round" x="7" y="14" width="10" height="6"/></g><g transform="translate(1184,18) scale(0.9583333333333334)"><path fill="none" stroke="#FFFFFF" stroke-width="1.9" stroke-linecap="round" stroke-linejoin="round" d="M12 4v11M12 15l-4-4M12 15l4-4"/><path fill="none" stroke="#FFFFFF" stroke-width="1.9" stroke-linecap="round" stroke-linejoin="round" d="M5 19h14"/></g>
</g></svg>