<svg xmlns="http://www.w3.org/2000/svg" viewBox="0 0 1280 676" width="1280" height="676" role="img">
<defs><linearGradient id="appbar" x1="0" y1="0" x2="1" y2="1"><stop offset="0" stop-color="#4361EE"/><stop offset="1" stop-color="#6366F1"/></linearGradient><filter id="cardShadow" x="-8%" y="-8%" width="116%" height="124%"><feDropShadow dx="0" dy="2" stdDeviation="5" flood-color="#0F172A" flood-opacity="0.06"/></filter><filter id="floatShadow" x="-20%" y="-20%" width="140%" height="150%"><feDropShadow dx="0" dy="8" stdDeviation="14" flood-color="#0F172A" flood-opacity="0.12"/></filter><linearGradient id="imgGrad" x1="0" y1="0" x2="0" y2="1"><stop offset="0" stop-color="#FFFFFF"/><stop offset="1" stop-color="#EEF2FF"/></linearGradient><clipPath id="round"><rect x="0" y="0" width="1280" height="676" rx="2"/></clipPath></defs>
<g clip-path="url(#round)">
<rect x="0" y="0" width="1280" height="676" rx="0" fill="#F8FAFC"/>
<rect x="24" y="84" width="440" height="200" rx="20" fill="url(#appbar)" filter="url(#floatShadow)"/><g transform="translate(52,112) scale(1.5)"><rect fill="none" stroke="#FFFFFF" stroke-width="2" stroke-linecap="round" stroke-linejoin="round" x="4" y="9" width="16" height="11" rx="1.5"/><path fill="none" stroke="#FFFFFF" stroke-width="2" stroke-linecap="round" stroke-linejoin="round" d="M3 9h18M12 9v11"/><path fill="none" stroke="#FFFFFF" stroke-width="2" stroke-linecap="round" stroke-linejoin="round" d="M12 9S10.5 4 8 4a2 2 0 0 0 0 5zM12 9s1.5-5 4-5a2 2 0 0 1 0 5z"/></g><text x="52" y="180" font-family="'Segoe UI', Roboto, -apple-system, BlinkMacSystemFont, Helvetica, Arial, sans-serif" font-size="17" font-weight="600" fill="#FFFFFF" text-anchor="start" opacity="0.95">Jean Dupont</text><text x="52" y="224" font-family="'Segoe UI', Roboto, -apple-system, BlinkMacSystemFont, Helvetica, Arial, sans-serif" font-size="46" font-weight="700" fill="#FFFFFF" text-anchor="start">1.250</text><text x="204" y="224" font-family="'Segoe UI', Roboto, -apple-system, BlinkMacSystemFont, Helvetica, Arial, sans-serif" font-size="16" font-weight="400" fill="#FFFFFF" text-anchor="start" opacity="0.9">Punkte</text><text x="52" y="252" font-family="'Segoe UI', Roboto, -apple-system, BlinkMacSystemFont, Helvetica, Arial, sans-serif" font-size="14" font-weight="400" fill="#FFFFFF" text-anchor="start" opacity="0.92">Einlösbarer Wert: 31,25 €</text><rect x="484.0" y="84" width="378.0" height="92" rx="16" fill="#FFFFFF" stroke="#E2E8F0" stroke-width="1" filter="url(#cardShadow)"/><rect x="500.0" y="100" width="36" height="36" rx="10" fill="#DCFCE7"/><g transform="translate(507.92,107.92) scale(0.84)"><path fill="none" stroke="#16A34A" stroke-width="2" stroke-linecap="round" stroke-linejoin="round" d="M3 17l6-6 4 4 8-8"/><path fill="none" stroke="#16A34A" stroke-width="2" stroke-linecap="round" stroke-linejoin="round" d="M21 7v5M21 7h-5"/></g><text x="548.0" y="124" font-family="'Segoe UI', Roboto, -apple-system, BlinkMacSystemFont, Helvetica, Arial, sans-serif" font-size="22" font-weight="700" fill="#0F172A" text-anchor="start">+ 2.480</text><text x="548.0" y="146" font-family="'Segoe UI', Roboto, -apple-system, BlinkMacSystemFont, Helvetica, Arial, sans-serif" font-size="12.5" font-weight="500" fill="#64748B" text-anchor="start">Punkte gesammelt</text><rect x="878.0" y="84" width="378.0" height="92" rx="16" fill="#FFFFFF" stroke="#E2E8F0" stroke-width="1" filter="url(#cardShadow)"/><rect x="894.0" y="100" width="36" height="36" rx="10" fill="#FEE2E2"/><g transform="translate(901.92,107.92) scale(0.84)"><path fill="none" stroke="#DC2626" stroke-width="2" stroke-linecap="round" stroke-linejoin="round" d="M4 9h11a5 5 0 0 1 0 10H9"/><path fill="none" stroke="#DC2626" stroke-width="2" stroke-linecap="round" stroke-linejoin="round" d="M4 9l4-4M4 9l4 4"/></g><text x="942.0" y="124" font-family="'Segoe UI', Roboto, -apple-system, BlinkMacSystemFont, Helvetica, Arial, sans-serif" font-size="22" font-weight="700" fill="#0F172A" text-anchor="start">- 350</text><text x="942.0" y="146" font-family="'Segoe UI', Roboto, -apple-system, BlinkMacSystemFont, Helvetica, Arial, sans-serif" font-size="12.5" font-weight="500" fill="#64748B" text-anchor="start">Punkte eingelöst</text><rect x="484" y="192" width="772.0" height="92" rx="16" fill="#FFFFFF" stroke="#E2E8F0" stroke-width="1" filter="url(#cardShadow)"/><text x="502" y="218" font-family="'Segoe UI', Roboto, -apple-system, BlinkMacSystemFont, Helvetica, Arial, sans-serif" font-size="14" font-weight="700" fill="#0F172A" text-anchor="start">Gold-Stufe</text><text x="1238.0" y="218" font-family="'Segoe UI', Roboto, -apple-system, BlinkMacSystemFont, Helvetica, Arial, sans-serif" font-size="13" font-weight="400" fill="#64748B" text-anchor="end">1.250 / 1.500 Pkt.</text><rect x="502" y="232" width="736.0" height="12" rx="6" fill="#F1F5F9"/><rect x="502" y="232" width="610.88" height="12" rx="6" fill="#EAB308"/><text x="502" y="268" font-family="'Segoe UI', Roboto, -apple-system, BlinkMacSystemFont, Helvetica, Arial, sans-serif" font-size="12.5" font-weight="400" fill="#64748B" text-anchor="start">Noch 250 Punkte bis Platin</text><rect x="24" y="308" width="1232" height="344" rx="16" fill="#FFFFFF" stroke="#E2E8F0" stroke-width="1" filter="url(#cardShadow)"/><text x="48" y="342" font-family="'Segoe UI', Roboto, -apple-system, BlinkMacSystemFont, Helvetica, Arial, sans-serif" font-size="15" font-weight="700" fill="#0F172A" text-anchor="start">Punkteverlauf</text><line x1="48" y1="356" x2="1232" y2="356" stroke="#E2E8F0" stroke-width="1" stroke-linecap="round"/><rect x="48" y="366.0" width="36" height="36" rx="18" fill="#DCFCE7"/><g transform="translate(55.92,373.92) scale(0.84)"><path fill="none" stroke="#16A34A" stroke-width="2" stroke-linecap="round" stroke-linejoin="round" d="M12 5v14M5 12h14"/></g><text x="98" y="382.0" font-family="'Segoe UI', Roboto, -apple-system, BlinkMacSystemFont, Helvetica, Arial, sans-serif" font-size="13.5" font-weight="600" fill="#0F172A" text-anchor="start">Kauf Nr. VTE-2026-001</text><text x="98" y="400.0" font-family="'Segoe UI', Roboto, -apple-system, BlinkMacSystemFont, Helvetica, Arial, sans-serif" font-size="12" font-weight="400" fill="#94A3B8" text-anchor="start">20.06.2026  14:30</text><text x="1232" y="389.0" font-family="'Segoe UI', Roboto, -apple-system, BlinkMacSystemFont, Helvetica, Arial, sans-serif" font-size="15" font-weight="700" fill="#16A34A" text-anchor="end">+ 450 Pkt.</text><line x1="48" y1="412" x2="1232" y2="412" stroke="#F1F5F9" stroke-width="1" stroke-linecap="round"/><rect x="48" y="422.0" width="36" height="36" rx="18" fill="#DCFCE7"/><g transform="translate(55.92,429.92) scale(0.84)"><path fill="none" stroke="#16A34A" stroke-width="2" stroke-linecap="round" stroke-linejoin="round" d="M12 5v14M5 12h14"/></g><text x="98" y="438.0" font-family="'Segoe UI', Roboto, -apple-system, BlinkMacSystemFont, Helvetica, Arial, sans-serif" font-size="13.5" font-weight="600" fill="#0F172A" text-anchor="start">Kauf Nr. VTE-2026-012</text><text x="98" y="456.0" font-family="'Segoe UI', Roboto, -apple-system, BlinkMacSystemFont, Helvetica, Arial, sans-serif" font-size="12" font-weight="400" fill="#94A3B8" text-anchor="start">19.06.2026  11:15</text><text x="1232" y="445.0" font-family="'Segoe UI', Roboto, -apple-system, BlinkMacSystemFont, Helvetica, Arial, sans-serif" font-size="15" font-weight="700" fill="#16A34A" text-anchor="end">+ 280 Pkt.</text><line x1="48" y1="468" x2="1232" y2="468" stroke="#F1F5F9" stroke-width="1" stroke-linecap="round"/><rect x="48" y="478.0" width="36" height="36" rx="18" fill="#FEE2E2"/><g transform="translate(55.92,485.92) scale(0.84)"><path fill="none" stroke="#DC2626" stroke-width="2" stroke-linecap="round" stroke-linejoin="round" d="M6 12h12"/></g><text x="98" y="494.0" font-family="'Segoe UI', Roboto, -apple-system, BlinkMacSystemFont, Helvetica, Arial, sans-serif" font-size="13.5" font-weight="600" fill="#0F172A" text-anchor="start">Treuerabatt - VTE-2026-018</text><text x="98" y="512.0" font-family="'Segoe UI', Roboto, -apple-system, BlinkMacSystemFont, Helvetica, Arial, sans-serif" font-size="12" font-weight="400" fill="#94A3B8" text-anchor="start">18.06.2026  09:45</text><text x="1232" y="501.0" font-family="'Segoe UI', Roboto, -apple-system, BlinkMacSystemFont, Helvetica, Arial, sans-serif" font-size="15" font-weight="700" fill="#DC2626" text-anchor="end">- 200 Pkt.</text><line x1="48" y1="524" x2="1232" y2="524" stroke="#F1F5F9" stroke-width="1" stroke-linecap="round"/><rect x="48" y="534.0" width="36" height="36" rx="18" fill="#FEE2E2"/><g transform="translate(55.92,541.92) scale(0.84)"><path fill="none" stroke="#DC2626" stroke-width="2" stroke-linecap="round" stroke-linejoin="round" d="M6 12h12"/></g><text x="98" y="550.0" font-family="'Segoe UI', Roboto, -apple-system, BlinkMacSystemFont, Helvetica, Arial, sans-serif" font-size="13.5" font-weight="600" fill="#0F172A" text-anchor="start">Treuerabatt - VTE-2026-025</text><text x="98" y="568.0" font-family="'Segoe UI', Roboto, -apple-system, BlinkMacSystemFont, Helvetica, Arial, sans-serif" font-size="12" font-weight="400" fill="#94A3B8" text-anchor="start">17.06.2026  16:20</text><text x="1232" y="557.0" font-family="'Segoe UI', Roboto, -apple-system, BlinkMacSystemFont, Helvetica, Arial, sans-serif" font-size="15" font-weight="700" fill="#DC2626" text-anchor="end">- 150 Pkt.</text><line x1="48" y1="580" x2="1232" y2="580" stroke="#F1F5F9" stroke-width="1" stroke-linecap="round"/><rect x="48" y="590.0" width="36" height="36" rx="18" fill="#DCFCE7"/><g transform="translate(55.92,597.92) scale(0.84)"><path fill="none" stroke="#16A34A" stroke-width="2" stroke-linecap="round" stroke-linejoin="round" d="M12 5v14M5 12h14"/></g><text x="98" y="606.0" font-family="'Segoe UI', Roboto, -apple-system, BlinkMacSystemFont, Helvetica, Arial, sans-serif" font-size="13.5" font-weight="600" fill="#0F172A" text-anchor="start">Anpassung - Korrektur</text><text x="98" y="624.0" font-family="'Segoe UI', Roboto, -apple-system, BlinkMacSystemFont, Helvetica, Arial, sans-serif" font-size="12" font-weight="400" fill="#94A3B8" text-anchor="start">15.06.2026  10:00</text><text x="1232" y="613.0" font-family="'Segoe UI', Roboto, -apple-system, BlinkMacSystemFont, Helvetica, Arial, sans-serif" font-size="15" font-weight="700" fill="#16A34A" text-anchor="end">+ 50 Pkt.</text><line x1="48" y1="636" x2="1232" y2="636" stroke="#F1F5F9" stroke-width="1" stroke-linecap="round"/>
<rect x="0" y="0" width="1280" height="60" rx="0" fill="url(#appbar)"/><g transform="translate(22,18)"><path fill="none" stroke="#FFFFFF" stroke-width="2" stroke-linecap="round" stroke-linejoin="round" d="M15 5l-7 7 7 7"/><path fill="none" stroke="#FFFFFF" stroke-width="2" stroke-linecap="round" stroke-linejoin="round" d="M8 12h11"/></g><text x="60" y="38" font-family="'Segoe UI', Roboto, -apple-system, BlinkMacSystemFont, Helvetica, Arial, sans-serif" font-size="19" font-weight="600" fill="#FFFFFF" text-anchor="start">Kundentreue</text><g transform="translate(1226,18) scale(0.9583333333333334)"><path fill="none" stroke="#FFFFFF" stroke-width="1.9" stroke-linecap="round" stroke-linejoin="round" d="M4 12a8 8 0 1 1 2.3 5.6"/><path fill="none" stroke="#FFFFFF" stroke-width="1.9" stroke-linecap="round" stroke-linejoin="round" d="M4 17v-4h4"/><path fill="none" stroke="#FFFFFF" stroke-width="1.9" stroke-linecap="round" stroke-linejoin="round" d="M12 8v4l3 2"/></g>
</g></svg>