<svg xmlns="http://www.w3.org/2000/svg" viewBox="0 0 1280 676" width="1280" height="676" role="img">
<defs><linearGradient id="appbar" x1="0" y1="0" x2="1" y2="1"><stop offset="0" stop-color="#4361EE"/><stop offset="1" stop-color="#6366F1"/></linearGradient><filter id="cardShadow" x="-8%" y="-8%" width="116%" height="124%"><feDropShadow dx="0" dy="2" stdDeviation="5" flood-color="#0F172A" flood-opacity="0.06"/></filter><filter id="floatShadow" x="-20%" y="-20%" width="140%" height="150%"><feDropShadow dx="0" dy="8" stdDeviation="14" flood-color="#0F172A" flood-opacity="0.12"/></filter><linearGradient id="imgGrad" x1="0" y1="0" x2="0" y2="1"><stop offset="0" stop-color="#FFFFFF"/><stop offset="1" stop-color="#EEF2FF"/></linearGradient><clipPath id="round"><rect x="0" y="0" width="1280" height="676" rx="2"/></clipPath></defs>
<g clip-path="url(#round)">
<rect x="0" y="0" width="1280" height="676" rx="0" fill="#F8FAFC"/>
<rect x="24" y="84" width="740" height="44" rx="12" fill="#FFFFFF" stroke="#E2E8F0" stroke-width="1"/><g transform="translate(38,95) scale(0.9166666666666666)"><circle fill="none" stroke="#94A3B8" stroke-width="2" stroke-linecap="round" stroke-linejoin="round" cx="11" cy="11" r="6.5"/><path fill="none" stroke="#94A3B8" stroke-width="2" stroke-linecap="round" stroke-linejoin="round" d="M16 16l4.5 4.5"/></g><text x="70" y="112" font-family="'Segoe UI', Roboto, -apple-system, BlinkMacSystemFont, Helvetica, Arial, sans-serif" font-size="14" font-weight="400" fill="#94A3B8" text-anchor="start">Produkt suchen…</text><g transform="translate(726,95) scale(0.9166666666666666)"><path fill="none" stroke="#4361EE" stroke-width="2" stroke-linecap="round" stroke-linejoin="round" d="M4 8V5h3M20 8V5h-3M4 16v3h3M20 16v3h-3"/><path fill="none" stroke="#4361EE" stroke-width="2" stroke-linecap="round" stroke-linejoin="round" d="M7 8v8M10 8v8M13 8v8M16 8v8"/></g><rect x="24.0" y="144.0" width="174.5" height="160.0" rx="16" fill="#FFFFFF" stroke="#E2E8F0" stroke-width="1"/><rect x="36.0" y="156.0" width="150.5" height="73.60000000000001" rx="10" fill="url(#imgGrad)" stroke="#F1F5F9" stroke-width="1"/><g transform="translate(81.1,162.6) scale(0.604)"><circle cx="50" cy="58" r="27" fill="#EF4444"/><ellipse cx="40" cy="49" rx="8" ry="5" fill="#FFFFFF" opacity="0.4"/><path d="M50 33c-4-8-11-10-17-8 3 2 5 5 5 9 4-2 8-2 12-1z" fill="#16A34A"/><path d="M50 33c4-8 11-10 17-8-3 2-5 5-5 9-4-2-8-2-12-1z" fill="#15803D"/><rect x="47" y="22" width="6" height="12" rx="3" fill="#15803D"/></g><text x="38.0" y="274.0" font-family="'Segoe UI', Roboto, -apple-system, BlinkMacSystemFont, Helvetica, Arial, sans-serif" font-size="12.5" font-weight="600" fill="#1E293B" text-anchor="start">Bio-Tomate</text><text x="38.0" y="292.0" font-family="'Segoe UI', Roboto, -apple-system, BlinkMacSystemFont, Helvetica, Arial, sans-serif" font-size="13" font-weight="700" fill="#4361EE" text-anchor="start">4,50 €/kg</text><rect x="212.5" y="144.0" width="174.5" height="160.0" rx="16" fill="#FFFFFF" stroke="#E2E8F0" stroke-width="1"/><rect x="224.5" y="156.0" width="150.5" height="73.60000000000001" rx="10" fill="url(#imgGrad)" stroke="#F1F5F9" stroke-width="1"/><g transform="translate(269.6,162.6) scale(0.604)"><path d="M22 58c0-13 12-22 28-22s28 9 28 22c0 4-3 6-7 6H29c-4 0-7-2-7-6z" fill="#D9A066"/><path d="M22 58c0-6 3-11 8-15 0 5 1 9 3 13-4 0-8 1-11 2z" fill="#E8C39E" opacity="0.6"/><path d="M36 41l6 11M50 37l4 13M64 41l-6 11" stroke="#A9682E" stroke-width="3" fill="none" stroke-linecap="round"/></g><text x="226.5" y="274.0" font-family="'Segoe UI', Roboto, -apple-system, BlinkMacSystemFont, Helvetica, Arial, sans-serif" font-size="12.5" font-weight="600" fill="#1E293B" text-anchor="start">Vollkornbrot 400g</text><text x="226.5" y="292.0" font-family="'Segoe UI', Roboto, -apple-system, BlinkMacSystemFont, Helvetica, Arial, sans-serif" font-size="13" font-weight="700" fill="#4361EE" text-anchor="start">2,20 €</text><rect x="401.0" y="144.0" width="174.5" height="160.0" rx="16" fill="#FFFFFF" stroke="#E2E8F0" stroke-width="1"/><rect x="413.0" y="156.0" width="150.5" height="73.60000000000001" rx="10" fill="url(#imgGrad)" stroke="#F1F5F9" stroke-width="1"/><g transform="translate(458.1,162.6) scale(0.604)"><path d="M37 34h26v6l4 7v23a3 3 0 0 1-3 3H36a3 3 0 0 1-3-3V47l4-7z" fill="#FFFFFF" stroke="#CBD5E1" stroke-width="2"/><path d="M33 47h34v7H33z" fill="#4361EE"/><rect x="42" y="58" width="16" height="11" rx="2" fill="#4361EE" opacity="0.18"/></g><text x="415.0" y="274.0" font-family="'Segoe UI', Roboto, -apple-system, BlinkMacSystemFont, Helvetica, Arial, sans-serif" font-size="12.5" font-weight="600" fill="#1E293B" text-anchor="start">Milch 1L</text><text x="415.0" y="292.0" font-family="'Segoe UI', Roboto, -apple-system, BlinkMacSystemFont, Helvetica, Arial, sans-serif" font-size="13" font-weight="700" fill="#4361EE" text-anchor="start">1,05 €</text><rect x="589.5" y="144.0" width="174.5" height="160.0" rx="16" fill="#FFFFFF" stroke="#E2E8F0" stroke-width="1"/><rect x="601.5" y="156.0" width="150.5" height="73.60000000000001" rx="10" fill="url(#imgGrad)" stroke="#F1F5F9" stroke-width="1"/><g transform="translate(646.6,162.6) scale(0.604)"><path d="M22 64l54-22 6 22z" fill="#FBBF24"/><path d="M22 64l54-22 6 22z" fill="#F59E0B" opacity="0.18"/><circle cx="58" cy="56" r="3.5" fill="#F59E0B"/><circle cx="69" cy="53" r="2.5" fill="#F59E0B"/><circle cx="63" cy="61" r="2" fill="#F59E0B"/></g><text x="603.5" y="274.0" font-family="'Segoe UI', Roboto, -apple-system, BlinkMacSystemFont, Helvetica, Arial, sans-serif" font-size="12.5" font-weight="600" fill="#1E293B" text-anchor="start">Käse 250g</text><text x="603.5" y="292.0" font-family="'Segoe UI', Roboto, -apple-system, BlinkMacSystemFont, Helvetica, Arial, sans-serif" font-size="13" font-weight="700" fill="#4361EE" text-anchor="start">8,50 €</text><rect x="24.0" y="318.0" width="174.5" height="160.0" rx="16" fill="#FFFFFF" stroke="#E2E8F0" stroke-width="1"/><rect x="36.0" y="330.0" width="150.5" height="73.60000000000001" rx="10" fill="url(#imgGrad)" stroke="#F1F5F9" stroke-width="1"/><g transform="translate(81.1,336.6) scale(0.604)"><g fill="#60A5FA"><rect x="33" y="38" width="12" height="31" rx="4"/><rect x="47" y="38" width="12" height="31" rx="4"/><rect x="61" y="38" width="12" height="31" rx="4"/></g><g fill="#2563EB"><rect x="35" y="32" width="8" height="8" rx="2"/><rect x="49" y="32" width="8" height="8" rx="2"/><rect x="63" y="32" width="8" height="8" rx="2"/></g><g fill="#FFFFFF" opacity="0.65"><rect x="33" y="51" width="12" height="8"/><rect x="47" y="51" width="12" height="8"/><rect x="61" y="51" width="12" height="8"/></g></g><text x="38.0" y="448.0" font-family="'Segoe UI', Roboto, -apple-system, BlinkMacSystemFont, Helvetica, Arial, sans-serif" font-size="12.5" font-weight="600" fill="#1E293B" text-anchor="start">Wasser 6×1,5L</text><text x="38.0" y="466.0" font-family="'Segoe UI', Roboto, -apple-system, BlinkMacSystemFont, Helvetica, Arial, sans-serif" font-size="13" font-weight="700" fill="#4361EE" text-anchor="start">3,99 €</text><rect x="212.5" y="318.0" width="174.5" height="160.0" rx="16" fill="#FFFFFF" stroke="#E2E8F0" stroke-width="1"/><rect x="224.5" y="330.0" width="150.5" height="73.60000000000001" rx="10" fill="url(#imgGrad)" stroke="#F1F5F9" stroke-width="1"/><g transform="translate(269.6,336.6) scale(0.604)"><path d="M24 55h52v11a4 4 0 0 1-4 4H28a4 4 0 0 1-4-4z" fill="#94A3B8"/><g fill="#FFFFFF" stroke="#E2E8F0" stroke-width="1.5"><ellipse cx="35" cy="49" rx="7" ry="9"/><ellipse cx="50" cy="49" rx="7" ry="9"/><ellipse cx="65" cy="49" rx="7" ry="9"/></g></g><text x="226.5" y="448.0" font-family="'Segoe UI', Roboto, -apple-system, BlinkMacSystemFont, Helvetica, Arial, sans-serif" font-size="12.5" font-weight="600" fill="#1E293B" text-anchor="start">Eier x12</text><text x="226.5" y="466.0" font-family="'Segoe UI', Roboto, -apple-system, BlinkMacSystemFont, Helvetica, Arial, sans-serif" font-size="13" font-weight="700" fill="#4361EE" text-anchor="start">3,40 €</text><rect x="401.0" y="318.0" width="174.5" height="160.0" rx="16" fill="#FFFFFF" stroke="#E2E8F0" stroke-width="1"/><rect x="413.0" y="330.0" width="150.5" height="73.60000000000001" rx="10" fill="url(#imgGrad)" stroke="#F1F5F9" stroke-width="1"/><g transform="translate(458.1,336.6) scale(0.604)"><path d="M28 40c0 19 16 31 36 28-7-3-10-10-10-18 0-6-2-9-6-11-4 9-13 7-20 1z" fill="#FACC15"/><path d="M28 40c2 16 16 27 36 28" fill="none" stroke="#CA8A04" stroke-width="3" stroke-linecap="round"/><rect x="25" y="36" width="7" height="8" rx="2" fill="#65A30D"/></g><text x="415.0" y="448.0" font-family="'Segoe UI', Roboto, -apple-system, BlinkMacSystemFont, Helvetica, Arial, sans-serif" font-size="12.5" font-weight="600" fill="#1E293B" text-anchor="start">Bio-Bananen</text><text x="415.0" y="466.0" font-family="'Segoe UI', Roboto, -apple-system, BlinkMacSystemFont, Helvetica, Arial, sans-serif" font-size="13" font-weight="700" fill="#4361EE" text-anchor="start">2,30 €/kg</text><rect x="589.5" y="318.0" width="174.5" height="160.0" rx="16" fill="#FFFFFF" stroke="#E2E8F0" stroke-width="1"/><rect x="601.5" y="330.0" width="150.5" height="73.60000000000001" rx="10" fill="url(#imgGrad)" stroke="#F1F5F9" stroke-width="1"/><g transform="translate(646.6,336.6) scale(0.604)"><path d="M35 45h30l-3 25a4 4 0 0 1-4 3H42a4 4 0 0 1-4-3z" fill="#FFFFFF" stroke="#E2E8F0" stroke-width="2"/><rect x="33" y="38" width="34" height="9" rx="3" fill="#EC4899"/><path d="M44 57c4 4 8 4 12 0" stroke="#EC4899" stroke-width="3" fill="none" stroke-linecap="round"/></g><text x="603.5" y="448.0" font-family="'Segoe UI', Roboto, -apple-system, BlinkMacSystemFont, Helvetica, Arial, sans-serif" font-size="12.5" font-weight="600" fill="#1E293B" text-anchor="start">Joghurt x4</text><text x="603.5" y="466.0" font-family="'Segoe UI', Roboto, -apple-system, BlinkMacSystemFont, Helvetica, Arial, sans-serif" font-size="13" font-weight="700" fill="#4361EE" text-anchor="start">2,10 €</text><rect x="24.0" y="492.0" width="174.5" height="160.0" rx="16" fill="#FFFFFF" stroke="#E2E8F0" stroke-width="1"/><rect x="36.0" y="504.0" width="150.5" height="73.60000000000001" rx="10" fill="url(#imgGrad)" stroke="#F1F5F9" stroke-width="1"/><g transform="translate(81.1,510.6) scale(0.604)"><path d="M39 38h22l-3 32a4 4 0 0 1-4 3H46a4 4 0 0 1-4-3z" fill="#FB923C"/><path d="M39 38h22l-1 9H40z" fill="#FDBA74"/><circle cx="64" cy="34" r="8" fill="#F97316"/><path d="M64 26v16M56 34h16" stroke="#FFFFFF" stroke-width="1.5"/></g><text x="38.0" y="622.0" font-family="'Segoe UI', Roboto, -apple-system, BlinkMacSystemFont, Helvetica, Arial, sans-serif" font-size="12.5" font-weight="600" fill="#1E293B" text-anchor="start">Orangensaft 1L</text><text x="38.0" y="640.0" font-family="'Segoe UI', Roboto, -apple-system, BlinkMacSystemFont, Helvetica, Arial, sans-serif" font-size="13" font-weight="700" fill="#4361EE" text-anchor="start">2,60 €</text><rect x="212.5" y="492.0" width="174.5" height="160.0" rx="16" fill="#FFFFFF" stroke="#E2E8F0" stroke-width="1"/><rect x="224.5" y="504.0" width="150.5" height="73.60000000000001" rx="10" fill="url(#imgGrad)" stroke="#F1F5F9" stroke-width="1"/><g transform="translate(269.6,510.6) scale(0.604)"><path d="M35 38h30v30a4 4 0 0 1-4 4H39a4 4 0 0 1-4-4z" fill="#6B4226"/><path d="M35 38l4-6h22l4 6z" fill="#4A2E1A"/><rect x="41" y="48" width="18" height="14" rx="2" fill="#FFFFFF" opacity="0.9"/><ellipse cx="50" cy="55" rx="4" ry="5.5" fill="#6B4226"/></g><text x="226.5" y="622.0" font-family="'Segoe UI', Roboto, -apple-system, BlinkMacSystemFont, Helvetica, Arial, sans-serif" font-size="12.5" font-weight="600" fill="#1E293B" text-anchor="start">Kaffee 250g</text><text x="226.5" y="640.0" font-family="'Segoe UI', Roboto, -apple-system, BlinkMacSystemFont, Helvetica, Arial, sans-serif" font-size="13" font-weight="700" fill="#4361EE" text-anchor="start">8,75 €</text><rect x="401.0" y="492.0" width="174.5" height="160.0" rx="16" fill="#FFFFFF" stroke="#E2E8F0" stroke-width="1"/><rect x="413.0" y="504.0" width="150.5" height="73.60000000000001" rx="10" fill="url(#imgGrad)" stroke="#F1F5F9" stroke-width="1"/><g transform="translate(458.1,510.6) scale(0.604)"><path d="M35 36h30v32a4 4 0 0 1-4 4H39a4 4 0 0 1-4-4z" fill="#F8FAFC" stroke="#CBD5E1" stroke-width="2"/><rect x="35" y="51" width="30" height="10" fill="#16A34A"/><path d="M41 44l3-6h12l3 6z" fill="#E2E8F0"/></g><text x="415.0" y="622.0" font-family="'Segoe UI', Roboto, -apple-system, BlinkMacSystemFont, Helvetica, Arial, sans-serif" font-size="12.5" font-weight="600" fill="#1E293B" text-anchor="start">Reis 1kg</text><text x="415.0" y="640.0" font-family="'Segoe UI', Roboto, -apple-system, BlinkMacSystemFont, Helvetica, Arial, sans-serif" font-size="13" font-weight="700" fill="#4361EE" text-anchor="start">3,50 €</text><rect x="589.5" y="492.0" width="174.5" height="160.0" rx="16" fill="#FFFFFF" stroke="#E2E8F0" stroke-width="1"/><rect x="601.5" y="504.0" width="150.5" height="73.60000000000001" rx="10" fill="url(#imgGrad)" stroke="#F1F5F9" stroke-width="1"/><g transform="translate(646.6,510.6) scale(0.604)"><rect x="30" y="44" width="40" height="22" rx="3" fill="#FCD34D"/><rect x="30" y="44" width="40" height="8" rx="3" fill="#FBBF24"/><rect x="42" y="54" width="16" height="9" rx="2" fill="#FFFFFF" opacity="0.7"/></g><text x="603.5" y="622.0" font-family="'Segoe UI', Roboto, -apple-system, BlinkMacSystemFont, Helvetica, Arial, sans-serif" font-size="12.5" font-weight="600" fill="#1E293B" text-anchor="start">Butter 250g</text><text x="603.5" y="640.0" font-family="'Segoe UI', Roboto, -apple-system, BlinkMacSystemFont, Helvetica, Arial, sans-serif" font-size="13" font-weight="700" fill="#4361EE" text-anchor="start">2,95 €</text><rect x="782" y="84" width="474" height="568" rx="16" fill="#FFFFFF" stroke="#E2E8F0" stroke-width="1" filter="url(#cardShadow)"/><g transform="translate(800,100) scale(1.0)"><path fill="none" stroke="#4361EE" stroke-width="2" stroke-linecap="round" stroke-linejoin="round" d="M5 9h14l-1.4 9.4a2 2 0 0 1-2 1.6H8.4a2 2 0 0 1-2-1.6z"/><path fill="none" stroke="#4361EE" stroke-width="2" stroke-linecap="round" stroke-linejoin="round" d="M9 9l3-5 3 5"/><path fill="none" stroke="#4361EE" stroke-width="2" stroke-linecap="round" stroke-linejoin="round" d="M10 13v3M14 13v3"/></g><text x="832" y="117" font-family="'Segoe UI', Roboto, -apple-system, BlinkMacSystemFont, Helvetica, Arial, sans-serif" font-size="16" font-weight="700" fill="#0F172A" text-anchor="start">Warenkorb</text><rect x="929" y="102" width="22.96" height="22" rx="11" fill="#DBEAFE"/><text x="937" y="117.5" font-family="'Segoe UI', Roboto, -apple-system, BlinkMacSystemFont, Helvetica, Arial, sans-serif" font-size="12" font-weight="600" fill="#2563EB" text-anchor="start">4</text><g transform="translate(1218,100) scale(0.9166666666666666)"><path fill="none" stroke="#DC2626" stroke-width="2" stroke-linecap="round" stroke-linejoin="round" d="M7 7l10 10M17 7L7 17"/></g><line x1="798" y1="136" x2="1240" y2="136" stroke="#E2E8F0" stroke-width="1" stroke-linecap="round"/><rect x="798" y="148" width="442" height="56" rx="12" fill="#F8FAFC"/><text x="810" y="170" font-family="'Segoe UI', Roboto, -apple-system, BlinkMacSystemFont, Helvetica, Arial, sans-serif" font-size="13.5" font-weight="600" fill="#0F172A" text-anchor="start">Bio-Tomate</text><text x="810" y="190" font-family="'Segoe UI', Roboto, -apple-system, BlinkMacSystemFont, Helvetica, Arial, sans-serif" font-size="12" font-weight="400" fill="#64748B" text-anchor="start">2 × 4,50 €</text><text x="1228" y="170" font-family="'Segoe UI', Roboto, -apple-system, BlinkMacSystemFont, Helvetica, Arial, sans-serif" font-size="14" font-weight="700" fill="#16A34A" text-anchor="end">9,00 €</text><rect x="1164" y="180" width="64" height="18" rx="9" fill="#FFFFFF" stroke="#E2E8F0" stroke-width="1"/><g transform="translate(1168,181) scale(0.6666666666666666)"><path fill="none" stroke="#DC2626" stroke-width="2" stroke-linecap="round" stroke-linejoin="round" d="M6 12h12"/></g><text x="1196" y="193" font-family="'Segoe UI', Roboto, -apple-system, BlinkMacSystemFont, Helvetica, Arial, sans-serif" font-size="12" font-weight="700" fill="#1E293B" text-anchor="middle">2</text><g transform="translate(1210,181) scale(0.6666666666666666)"><path fill="none" stroke="#16A34A" stroke-width="2" stroke-linecap="round" stroke-linejoin="round" d="M12 5v14M5 12h14"/></g><rect x="798" y="212" width="442" height="56" rx="12" fill="#F8FAFC"/><text x="810" y="234" font-family="'Segoe UI', Roboto, -apple-system, BlinkMacSystemFont, Helvetica, Arial, sans-serif" font-size="13.5" font-weight="600" fill="#0F172A" text-anchor="start">Vollkornbrot 400g</text><text x="810" y="254" font-family="'Segoe UI', Roboto, -apple-system, BlinkMacSystemFont, Helvetica, Arial, sans-serif" font-size="12" font-weight="400" fill="#64748B" text-anchor="start">3 × 2,20 €</text><text x="1228" y="234" font-family="'Segoe UI', Roboto, -apple-system, BlinkMacSystemFont, Helvetica, Arial, sans-serif" font-size="14" font-weight="700" fill="#16A34A" text-anchor="end">6,60 €</text><rect x="1164" y="244" width="64" height="18" rx="9" fill="#FFFFFF" stroke="#E2E8F0" stroke-width="1"/><g transform="translate(1168,245) scale(0.6666666666666666)"><path fill="none" stroke="#DC2626" stroke-width="2" stroke-linecap="round" stroke-linejoin="round" d="M6 12h12"/></g><text x="1196" y="257" font-family="'Segoe UI', Roboto, -apple-system, BlinkMacSystemFont, Helvetica, Arial, sans-serif" font-size="12" font-weight="700" fill="#1E293B" text-anchor="middle">3</text><g transform="translate(1210,245) scale(0.6666666666666666)"><path fill="none" stroke="#16A34A" stroke-width="2" stroke-linecap="round" stroke-linejoin="round" d="M12 5v14M5 12h14"/></g><rect x="798" y="276" width="442" height="56" rx="12" fill="#F8FAFC"/><text x="810" y="298" font-family="'Segoe UI', Roboto, -apple-system, BlinkMacSystemFont, Helvetica, Arial, sans-serif" font-size="13.5" font-weight="600" fill="#0F172A" text-anchor="start">Käse 250g</text><text x="810" y="318" font-family="'Segoe UI', Roboto, -apple-system, BlinkMacSystemFont, Helvetica, Arial, sans-serif" font-size="12" font-weight="400" fill="#64748B" text-anchor="start">1 × 8,50 €</text><text x="1228" y="298" font-family="'Segoe UI', Roboto, -apple-system, BlinkMacSystemFont, Helvetica, Arial, sans-serif" font-size="14" font-weight="700" fill="#16A34A" text-anchor="end">8,50 €</text><rect x="1164" y="308" width="64" height="18" rx="9" fill="#FFFFFF" stroke="#E2E8F0" stroke-width="1"/><g transform="translate(1168,309) scale(0.6666666666666666)"><path fill="none" stroke="#DC2626" stroke-width="2" stroke-linecap="round" stroke-linejoin="round" d="M6 12h12"/></g><text x="1196" y="321" font-family="'Segoe UI', Roboto, -apple-system, BlinkMacSystemFont, Helvetica, Arial, sans-serif" font-size="12" font-weight="700" fill="#1E293B" text-anchor="middle">1</text><g transform="translate(1210,309) scale(0.6666666666666666)"><path fill="none" stroke="#16A34A" stroke-width="2" stroke-linecap="round" stroke-linejoin="round" d="M12 5v14M5 12h14"/></g><rect x="798" y="340" width="442" height="56" rx="12" fill="#F8FAFC"/><text x="810" y="362" font-family="'Segoe UI', Roboto, -apple-system, BlinkMacSystemFont, Helvetica, Arial, sans-serif" font-size="13.5" font-weight="600" fill="#0F172A" text-anchor="start">Wasser 6×1,5L</text><text x="810" y="382" font-family="'Segoe UI', Roboto, -apple-system, BlinkMacSystemFont, Helvetica, Arial, sans-serif" font-size="12" font-weight="400" fill="#64748B" text-anchor="start">2 × 3,99 €</text><text x="1228" y="362" font-family="'Segoe UI', Roboto, -apple-system, BlinkMacSystemFont, Helvetica, Arial, sans-serif" font-size="14" font-weight="700" fill="#16A34A" text-anchor="end">7,98 €</text><rect x="1164" y="372" width="64" height="18" rx="9" fill="#FFFFFF" stroke="#E2E8F0" stroke-width="1"/><g transform="translate(1168,373) scale(0.6666666666666666)"><path fill="none" stroke="#DC2626" stroke-width="2" stroke-linecap="round" stroke-linejoin="round" d="M6 12h12"/></g><text x="1196" y="385" font-family="'Segoe UI', Roboto, -apple-system, BlinkMacSystemFont, Helvetica, Arial, sans-serif" font-size="12" font-weight="700" fill="#1E293B" text-anchor="middle">2</text><g transform="translate(1210,373) scale(0.6666666666666666)"><path fill="none" stroke="#16A34A" stroke-width="2" stroke-linecap="round" stroke-linejoin="round" d="M12 5v14M5 12h14"/></g><line x1="798" y1="484" x2="1240" y2="484" stroke="#E2E8F0" stroke-width="1" stroke-linecap="round"/><text x="806" y="510" font-family="'Segoe UI', Roboto, -apple-system, BlinkMacSystemFont, Helvetica, Arial, sans-serif" font-size="13.5" font-weight="400" fill="#64748B" text-anchor="start">Zwischensumme (netto)</text><text x="1232" y="510" font-family="'Segoe UI', Roboto, -apple-system, BlinkMacSystemFont, Helvetica, Arial, sans-serif" font-size="13.5" font-weight="600" fill="#334155" text-anchor="end">32,08 €</text><text x="806" y="534" font-family="'Segoe UI', Roboto, -apple-system, BlinkMacSystemFont, Helvetica, Arial, sans-serif" font-size="13.5" font-weight="400" fill="#64748B" text-anchor="start">MwSt.</text><text x="1232" y="534" font-family="'Segoe UI', Roboto, -apple-system, BlinkMacSystemFont, Helvetica, Arial, sans-serif" font-size="13.5" font-weight="600" fill="#D97706" text-anchor="end">+ 1,76 €</text><text x="806" y="564" font-family="'Segoe UI', Roboto, -apple-system, BlinkMacSystemFont, Helvetica, Arial, sans-serif" font-size="16" font-weight="700" fill="#0F172A" text-anchor="start">Gesamt (brutto)</text><text x="1232" y="564" font-family="'Segoe UI', Roboto, -apple-system, BlinkMacSystemFont, Helvetica, Arial, sans-serif" font-size="20" font-weight="700" fill="#4361EE" text-anchor="end">33,84 €</text><rect x="798" y="580" width="442" height="46" rx="12" fill="#4361EE"/><g transform="translate(955.0,592) scale(0.9166666666666666)"><rect fill="none" stroke="#FFFFFF" stroke-width="2" stroke-linecap="round" stroke-linejoin="round" x="3" y="5" width="18" height="14" rx="2.5"/><path fill="none" stroke="#FFFFFF" stroke-width="2" stroke-linecap="round" stroke-linejoin="round" d="M3 9.5h18"/><path fill="none" stroke="#FFFFFF" stroke-width="2" stroke-linecap="round" stroke-linejoin="round" d="M6.5 14.5h4"/></g><text x="1033.0" y="609" font-family="'Segoe UI', Roboto, -apple-system, BlinkMacSystemFont, Helvetica, Arial, sans-serif" font-size="14.5" font-weight="700" fill="#FFFFFF" text-anchor="middle">Zur Zahlung</text>
<rect x="0" y="0" width="1280" height="60" rx="0" fill="url(#appbar)"/><g transform="translate(22,18)"><path fill="none" stroke="#FFFFFF" stroke-width="2" stroke-linecap="round" stroke-linejoin="round" d="M15 5l-7 7 7 7"/><path fill="none" stroke="#FFFFFF" stroke-width="2" stroke-linecap="round" stroke-linejoin="round" d="M8 12h11"/></g><text x="60" y="38" font-family="'Segoe UI', Roboto, -apple-system, BlinkMacSystemFont, Helvetica, Arial, sans-serif" font-size="19" font-weight="600" fill="#FFFFFF" text-anchor="start">Neuer Verkauf</text><g transform="translate(1226,18) scale(0.9583333333333334)"><path fill="none" stroke="#FFFFFF" stroke-width="1.9" stroke-linecap="round" stroke-linejoin="round" d="M6 3h9l4 4v14H6z"/><path fill="none" stroke="#FFFFFF" stroke-width="1.9" stroke-linecap="round" stroke-linejoin="round" d="M14 3v5h5"/><path fill="none" stroke="#FFFFFF" stroke-width="1.9" stroke-linecap="round" stroke-linejoin="round" d="M9 13h6M9 16h4"/></g><g transform="translate(1184,18) scale(0.9583333333333334)"><path fill="none" stroke="#FFFFFF" stroke-width="1.9" stroke-linecap="round" stroke-linejoin="round" d="M4 8V5h3M20 8V5h-3M4 16v3h3M20 16v3h-3"/><path fill="none" stroke="#FFFFFF" stroke-width="1.9" stroke-linecap="round" stroke-linejoin="round" d="M7 8v8M10 8v8M13 8v8M16 8v8"/></g>
</g></svg>