<svg xmlns="http://www.w3.org/2000/svg" viewBox="0 0 1280 676" width="1280" height="676" role="img">
<defs><linearGradient id="appbar" x1="0" y1="0" x2="1" y2="1"><stop offset="0" stop-color="#4361EE"/><stop offset="1" stop-color="#6366F1"/></linearGradient><filter id="cardShadow" x="-8%" y="-8%" width="116%" height="124%"><feDropShadow dx="0" dy="2" stdDeviation="5" flood-color="#0F172A" flood-opacity="0.06"/></filter><filter id="floatShadow" x="-20%" y="-20%" width="140%" height="150%"><feDropShadow dx="0" dy="8" stdDeviation="14" flood-color="#0F172A" flood-opacity="0.12"/></filter><linearGradient id="imgGrad" x1="0" y1="0" x2="0" y2="1"><stop offset="0" stop-color="#FFFFFF"/><stop offset="1" stop-color="#EEF2FF"/></linearGradient><clipPath id="round"><rect x="0" y="0" width="1280" height="676" rx="2"/></clipPath></defs>
<g clip-path="url(#round)">
<rect x="0" y="0" width="1280" height="676" rx="0" fill="#F8FAFC"/>
<text x="28" y="94" font-family="'Segoe UI', Roboto, -apple-system, BlinkMacSystemFont, Helvetica, Arial, sans-serif" font-size="24" font-weight="700" fill="#0F172A" text-anchor="start">Hallo, Alexis</text><rect x="28" y="108" width="340" height="34" rx="10" fill="#EEF2FF" stroke="#E0E7FF" stroke-width="1"/><g transform="translate(38,114) scale(0.9166666666666666)"><circle fill="none" stroke="#4361EE" stroke-width="2" stroke-linecap="round" stroke-linejoin="round" cx="12" cy="12" r="8.5"/><path fill="none" stroke="#4361EE" stroke-width="2" stroke-linecap="round" stroke-linejoin="round" d="M12 7.5V12l3 2"/></g><text x="68" y="122" font-family="'Segoe UI', Roboto, -apple-system, BlinkMacSystemFont, Helvetica, Arial, sans-serif" font-size="12" font-weight="500" fill="#64748B" text-anchor="start">Geschäftszeit</text><text x="68" y="137" font-family="'Segoe UI', Roboto, -apple-system, BlinkMacSystemFont, Helvetica, Arial, sans-serif" font-size="13" font-weight="700" fill="#1E293B" text-anchor="start">21.06.2026  -  14:25</text><text x="1252" y="130" font-family="'Segoe UI', Roboto, -apple-system, BlinkMacSystemFont, Helvetica, Arial, sans-serif" font-size="12" font-weight="400" fill="#94A3B8" text-anchor="end">Europe/Paris - UTC+2</text><text x="28" y="162" font-family="'Segoe UI', Roboto, -apple-system, BlinkMacSystemFont, Helvetica, Arial, sans-serif" font-size="12" font-weight="700" fill="#64748B" text-anchor="start" letter-spacing="0.8">TAGESÜBERBLICK</text><rect x="28.0" y="176" width="294.0" height="116" rx="16" fill="#FFFFFF" stroke="#E2E8F0" stroke-width="1" filter="url(#cardShadow)"/><rect x="46.0" y="194" width="40" height="40" rx="11" fill="#DCFCE7"/><g transform="translate(54.8,202.8) scale(0.9333333333333332)"><rect fill="none" stroke="#16A34A" stroke-width="2" stroke-linecap="round" stroke-linejoin="round" x="3" y="7" width="15" height="10" rx="2"/><circle fill="none" stroke="#16A34A" stroke-width="2" stroke-linecap="round" stroke-linejoin="round" cx="10.5" cy="12" r="2.2"/><path fill="none" stroke="#16A34A" stroke-width="2" stroke-linecap="round" stroke-linejoin="round" d="M21 9v9a2 2 0 0 1-2 2H7"/></g><text x="46.0" y="260" font-family="'Segoe UI', Roboto, -apple-system, BlinkMacSystemFont, Helvetica, Arial, sans-serif" font-size="26" font-weight="700" fill="#0F172A" text-anchor="start">2.450,50 €</text><text x="46.0" y="280" font-family="'Segoe UI', Roboto, -apple-system, BlinkMacSystemFont, Helvetica, Arial, sans-serif" font-size="13" font-weight="500" fill="#64748B" text-anchor="start">Gesamtumsatz</text><rect x="338.0" y="176" width="294.0" height="116" rx="16" fill="#FFFFFF" stroke="#E2E8F0" stroke-width="1" filter="url(#cardShadow)"/><rect x="356.0" y="194" width="40" height="40" rx="11" fill="#DBEAFE"/><g transform="translate(364.8,202.8) scale(0.9333333333333332)"><path fill="none" stroke="#2563EB" stroke-width="2" stroke-linecap="round" stroke-linejoin="round" d="M6 3h12v18l-2.2-1.5L13.6 21 11.4 19.5 9.2 21 7 19.5 6 21z"/><path fill="none" stroke="#2563EB" stroke-width="2" stroke-linecap="round" stroke-linejoin="round" d="M9 8h6M9 12h6"/></g><text x="356.0" y="260" font-family="'Segoe UI', Roboto, -apple-system, BlinkMacSystemFont, Helvetica, Arial, sans-serif" font-size="26" font-weight="700" fill="#0F172A" text-anchor="start">28</text><text x="356.0" y="280" font-family="'Segoe UI', Roboto, -apple-system, BlinkMacSystemFont, Helvetica, Arial, sans-serif" font-size="13" font-weight="500" fill="#64748B" text-anchor="start">Transaktionen</text><rect x="648.0" y="176" width="294.0" height="116" rx="16" fill="#FFFFFF" stroke="#E2E8F0" stroke-width="1" filter="url(#cardShadow)"/><rect x="666.0" y="194" width="40" height="40" rx="11" fill="#FEE2E2"/><g transform="translate(674.8,202.8) scale(0.9333333333333332)"><circle fill="none" stroke="#DC2626" stroke-width="2" stroke-linecap="round" stroke-linejoin="round" cx="12" cy="12" r="8.5"/><path fill="none" stroke="#DC2626" stroke-width="2" stroke-linecap="round" stroke-linejoin="round" d="M12 7.5V13"/><circle fill="#DC2626" cx="12" cy="16.5" r="1"/></g><text x="666.0" y="260" font-family="'Segoe UI', Roboto, -apple-system, BlinkMacSystemFont, Helvetica, Arial, sans-serif" font-size="26" font-weight="700" fill="#0F172A" text-anchor="start">3</text><text x="666.0" y="280" font-family="'Segoe UI', Roboto, -apple-system, BlinkMacSystemFont, Helvetica, Arial, sans-serif" font-size="13" font-weight="500" fill="#64748B" text-anchor="start">Nicht vorrätig</text><rect x="958.0" y="176" width="294.0" height="116" rx="16" fill="#FFFFFF" stroke="#E2E8F0" stroke-width="1" filter="url(#cardShadow)"/><rect x="976.0" y="194" width="40" height="40" rx="11" fill="#FEF3C7"/><g transform="translate(984.8,202.8) scale(0.9333333333333332)"><path fill="none" stroke="#D97706" stroke-width="2" stroke-linecap="round" stroke-linejoin="round" d="M12 4l8.5 15H3.5z"/><path fill="none" stroke="#D97706" stroke-width="2" stroke-linecap="round" stroke-linejoin="round" d="M12 10v4"/><circle fill="#D97706" cx="12" cy="16.5" r="1"/></g><text x="976.0" y="260" font-family="'Segoe UI', Roboto, -apple-system, BlinkMacSystemFont, Helvetica, Arial, sans-serif" font-size="26" font-weight="700" fill="#0F172A" text-anchor="start">12</text><text x="976.0" y="280" font-family="'Segoe UI', Roboto, -apple-system, BlinkMacSystemFont, Helvetica, Arial, sans-serif" font-size="13" font-weight="500" fill="#64748B" text-anchor="start">Niedriger Bestand</text><text x="28" y="316" font-family="'Segoe UI', Roboto, -apple-system, BlinkMacSystemFont, Helvetica, Arial, sans-serif" font-size="12" font-weight="700" fill="#64748B" text-anchor="start" letter-spacing="0.8">VERKAUF &amp; KUNDEN</text><rect x="28.0" y="328" width="294.0" height="76" rx="16" fill="#FFFFFF" stroke="#E2E8F0" stroke-width="1" filter="url(#cardShadow)"/><rect x="44.0" y="346" width="40" height="40" rx="10" fill="#DCFCE7"/><g transform="translate(52.8,354.8) scale(0.9333333333333332)"><rect fill="none" stroke="#16A34A" stroke-width="2" stroke-linecap="round" stroke-linejoin="round" x="4" y="9" width="16" height="11" rx="2"/><path fill="none" stroke="#16A34A" stroke-width="2" stroke-linecap="round" stroke-linejoin="round" d="M8 9V6a2 2 0 0 1 2-2h2a2 2 0 0 1 2 2v3"/><path fill="none" stroke="#16A34A" stroke-width="2" stroke-linecap="round" stroke-linejoin="round" d="M8 14h4"/></g><text x="96.0" y="372" font-family="'Segoe UI', Roboto, -apple-system, BlinkMacSystemFont, Helvetica, Arial, sans-serif" font-size="14.5" font-weight="600" fill="#1E293B" text-anchor="start">Verkauf</text><g transform="translate(292.0,354) scale(0.9166666666666666)"><path fill="none" stroke="#CBD5E1" stroke-width="2" stroke-linecap="round" stroke-linejoin="round" d="M9 6l6 6-6 6"/></g><rect x="338.0" y="328" width="294.0" height="76" rx="16" fill="#FFFFFF" stroke="#E2E8F0" stroke-width="1" filter="url(#cardShadow)"/><rect x="354.0" y="346" width="40" height="40" rx="10" fill="#DBEAFE"/><g transform="translate(362.8,354.8) scale(0.9333333333333332)"><path fill="none" stroke="#2563EB" stroke-width="2" stroke-linecap="round" stroke-linejoin="round" d="M4 12a8 8 0 1 1 2.3 5.6"/><path fill="none" stroke="#2563EB" stroke-width="2" stroke-linecap="round" stroke-linejoin="round" d="M4 17v-4h4"/><path fill="none" stroke="#2563EB" stroke-width="2" stroke-linecap="round" stroke-linejoin="round" d="M12 8v4l3 2"/></g><text x="406.0" y="372" font-family="'Segoe UI', Roboto, -apple-system, BlinkMacSystemFont, Helvetica, Arial, sans-serif" font-size="14.5" font-weight="600" fill="#1E293B" text-anchor="start">Verkaufsverlauf</text><g transform="translate(602.0,354) scale(0.9166666666666666)"><path fill="none" stroke="#CBD5E1" stroke-width="2" stroke-linecap="round" stroke-linejoin="round" d="M9 6l6 6-6 6"/></g><rect x="648.0" y="328" width="294.0" height="76" rx="16" fill="#FFFFFF" stroke="#E2E8F0" stroke-width="1" filter="url(#cardShadow)"/><rect x="664.0" y="346" width="40" height="40" rx="10" fill="#EEF2FF"/><g transform="translate(672.8,354.8) scale(0.9333333333333332)"><path fill="none" stroke="#4361EE" stroke-width="2" stroke-linecap="round" stroke-linejoin="round" d="M6 3h9l4 4v14H6z"/><path fill="none" stroke="#4361EE" stroke-width="2" stroke-linecap="round" stroke-linejoin="round" d="M14 3v5h5"/><path fill="none" stroke="#4361EE" stroke-width="2" stroke-linecap="round" stroke-linejoin="round" d="M9 13h6M9 16h4"/></g><text x="716.0" y="372" font-family="'Segoe UI', Roboto, -apple-system, BlinkMacSystemFont, Helvetica, Arial, sans-serif" font-size="14.5" font-weight="600" fill="#1E293B" text-anchor="start">Angebote</text><g transform="translate(912.0,354) scale(0.9166666666666666)"><path fill="none" stroke="#CBD5E1" stroke-width="2" stroke-linecap="round" stroke-linejoin="round" d="M9 6l6 6-6 6"/></g><rect x="958.0" y="328" width="294.0" height="76" rx="16" fill="#FFFFFF" stroke="#E2E8F0" stroke-width="1" filter="url(#cardShadow)"/><rect x="974.0" y="346" width="40" height="40" rx="10" fill="#EEF2FF"/><g transform="translate(982.8,354.8) scale(0.9333333333333332)"><path fill="none" stroke="#6366F1" stroke-width="2" stroke-linecap="round" stroke-linejoin="round" d="M5 3h11v18l-1.6-1.2L12.8 21 11.2 19.8 9 21V3z"/><path fill="none" stroke="#6366F1" stroke-width="2" stroke-linecap="round" stroke-linejoin="round" d="M19 7v14"/><path fill="none" stroke="#6366F1" stroke-width="2" stroke-linecap="round" stroke-linejoin="round" d="M8 8h5M8 12h5"/></g><text x="1026.0" y="372" font-family="'Segoe UI', Roboto, -apple-system, BlinkMacSystemFont, Helvetica, Arial, sans-serif" font-size="14.5" font-weight="600" fill="#1E293B" text-anchor="start">Rechnungen</text><g transform="translate(1222.0,354) scale(0.9166666666666666)"><path fill="none" stroke="#CBD5E1" stroke-width="2" stroke-linecap="round" stroke-linejoin="round" d="M9 6l6 6-6 6"/></g><text x="28" y="426" font-family="'Segoe UI', Roboto, -apple-system, BlinkMacSystemFont, Helvetica, Arial, sans-serif" font-size="12" font-weight="700" fill="#64748B" text-anchor="start" letter-spacing="0.8">BESTAND &amp; FINANZEN</text><rect x="28.0" y="438" width="294.0" height="76" rx="16" fill="#FFFFFF" stroke="#E2E8F0" stroke-width="1" filter="url(#cardShadow)"/><rect x="44.0" y="456" width="40" height="40" rx="10" fill="#EEF2FF"/><g transform="translate(52.8,464.8) scale(0.9333333333333332)"><path fill="none" stroke="#4361EE" stroke-width="2" stroke-linecap="round" stroke-linejoin="round" d="M4 7l8-4 8 4v10l-8 4-8-4z"/><path fill="none" stroke="#4361EE" stroke-width="2" stroke-linecap="round" stroke-linejoin="round" d="M4 7l8 4 8-4M12 11v10"/></g><text x="96.0" y="482" font-family="'Segoe UI', Roboto, -apple-system, BlinkMacSystemFont, Helvetica, Arial, sans-serif" font-size="14.5" font-weight="600" fill="#1E293B" text-anchor="start">Bestandsverwaltung</text><g transform="translate(292.0,464) scale(0.9166666666666666)"><path fill="none" stroke="#CBD5E1" stroke-width="2" stroke-linecap="round" stroke-linejoin="round" d="M9 6l6 6-6 6"/></g><rect x="338.0" y="438" width="294.0" height="76" rx="16" fill="#FFFFFF" stroke="#E2E8F0" stroke-width="1" filter="url(#cardShadow)"/><rect x="354.0" y="456" width="40" height="40" rx="10" fill="#DCFCE7"/><g transform="translate(362.8,464.8) scale(0.9333333333333332)"><rect fill="none" stroke="#16A34A" stroke-width="2" stroke-linecap="round" stroke-linejoin="round" x="3" y="3" width="18" height="18" rx="2"/><path fill="none" stroke="#16A34A" stroke-width="2" stroke-linecap="round" stroke-linejoin="round" d="M8 15v-3M12 15V9M16 15v-5"/></g><text x="406.0" y="482" font-family="'Segoe UI', Roboto, -apple-system, BlinkMacSystemFont, Helvetica, Arial, sans-serif" font-size="14.5" font-weight="600" fill="#1E293B" text-anchor="start">Transaktionen</text><g transform="translate(602.0,464) scale(0.9166666666666666)"><path fill="none" stroke="#CBD5E1" stroke-width="2" stroke-linecap="round" stroke-linejoin="round" d="M9 6l6 6-6 6"/></g><rect x="648.0" y="438" width="294.0" height="76" rx="16" fill="#FFFFFF" stroke="#E2E8F0" stroke-width="1" filter="url(#cardShadow)"/><rect x="664.0" y="456" width="40" height="40" rx="10" fill="#EEF2FF"/><g transform="translate(672.8,464.8) scale(0.9333333333333332)"><path fill="none" stroke="#4361EE" stroke-width="2" stroke-linecap="round" stroke-linejoin="round" d="M4 21V8l8-5 8 5v13"/><path fill="none" stroke="#4361EE" stroke-width="2" stroke-linecap="round" stroke-linejoin="round" d="M4 21h16M9 21v-6h6v6"/></g><text x="716.0" y="482" font-family="'Segoe UI', Roboto, -apple-system, BlinkMacSystemFont, Helvetica, Arial, sans-serif" font-size="14.5" font-weight="600" fill="#1E293B" text-anchor="start">Buchhaltung</text><g transform="translate(912.0,464) scale(0.9166666666666666)"><path fill="none" stroke="#CBD5E1" stroke-width="2" stroke-linecap="round" stroke-linejoin="round" d="M9 6l6 6-6 6"/></g><rect x="958.0" y="438" width="294.0" height="76" rx="16" fill="#FFFFFF" stroke="#E2E8F0" stroke-width="1" filter="url(#cardShadow)"/><rect x="974.0" y="456" width="40" height="40" rx="10" fill="#DBEAFE"/><g transform="translate(982.8,464.8) scale(0.9333333333333332)"><rect fill="none" stroke="#2563EB" stroke-width="2" stroke-linecap="round" stroke-linejoin="round" x="4" y="11" width="4" height="9"/><rect fill="none" stroke="#2563EB" stroke-width="2" stroke-linecap="round" stroke-linejoin="round" x="10" y="5" width="4" height="15"/><rect fill="none" stroke="#2563EB" stroke-width="2" stroke-linecap="round" stroke-linejoin="round" x="16" y="14" width="4" height="6"/></g><text x="1026.0" y="482" font-family="'Segoe UI', Roboto, -apple-system, BlinkMacSystemFont, Helvetica, Arial, sans-serif" font-size="14.5" font-weight="600" fill="#1E293B" text-anchor="start">Kassenleistung</text><g transform="translate(1222.0,464) scale(0.9166666666666666)"><path fill="none" stroke="#CBD5E1" stroke-width="2" stroke-linecap="round" stroke-linejoin="round" d="M9 6l6 6-6 6"/></g>
<rect x="0" y="0" width="1280" height="60" rx="0" fill="url(#appbar)"/><rect x="24" y="14" width="32" height="32" rx="9" fill="#FFFFFF" opacity="0.96"/><g transform="translate(28,18) scale(1.0)"><path fill="#4361EE" d="M5 4h9.5a4.5 4.5 0 0 1 1.3 8.8A4.8 4.8 0 0 1 14 21H5z"/><path fill="#FFFFFF" d="M8 7.5h5.6a1.8 1.8 0 0 1 0 3.6H8zM8 13h5.4a2 2 0 0 1 0 4H8z"/></g><text x="66" y="37" font-family="'Segoe UI', Roboto, -apple-system, BlinkMacSystemFont, Helvetica, Arial, sans-serif" font-size="18" font-weight="700" fill="#FFFFFF" text-anchor="start" letter-spacing="0.2">BizCoRa</text><g transform="translate(1226,18) scale(0.9583333333333334)"><path fill="none" stroke="#FFFFFF" stroke-width="1.9" stroke-linecap="round" stroke-linejoin="round" d="M14 4H6a2 2 0 0 0-2 2v12a2 2 0 0 0 2 2h8"/><path fill="none" stroke="#FFFFFF" stroke-width="1.9" stroke-linecap="round" stroke-linejoin="round" d="M16 8l4 4-4 4"/><path fill="none" stroke="#FFFFFF" stroke-width="1.9" stroke-linecap="round" stroke-linejoin="round" d="M20 12H9"/></g><g transform="translate(1186,18) scale(0.9583333333333334)"><circle fill="none" stroke="#FFFFFF" stroke-width="1.9" stroke-linecap="round" stroke-linejoin="round" cx="12" cy="12" r="9"/><path fill="none" stroke="#FFFFFF" stroke-width="1.9" stroke-linecap="round" stroke-linejoin="round" d="M9.2 9.3a2.8 2.8 0 0 1 5.4 1c0 1.9-2.6 2.2-2.6 4"/><circle fill="#FFFFFF" cx="12" cy="17" r="1"/></g><g transform="translate(1146,18) scale(0.9583333333333334)"><path fill="none" stroke="#A5B4FC" stroke-width="1.9" stroke-linecap="round" stroke-linejoin="round" d="M12 3l1.8 4.7L18.5 9l-4.7 1.3L12 15l-1.8-4.7L5.5 9l4.7-1.3z"/><path fill="none" stroke="#A5B4FC" stroke-width="1.9" stroke-linecap="round" stroke-linejoin="round" d="M18.5 14.5l.8 2 2 .8-2 .8-.8 2-.8-2-2-.8 2-.8z"/></g><circle cx="1118" cy="30" r="14" fill="rgba(255,255,255,0.18)"/><circle cx="1118" cy="30" r="14" fill="none" stroke="rgba(255,255,255,0.55)" stroke-width="1.4"/><text x="1118" y="34.5" font-family="'Segoe UI', Roboto, -apple-system, BlinkMacSystemFont, Helvetica, Arial, sans-serif" font-size="11" font-weight="700" fill="#FFFFFF" text-anchor="middle">AM</text><g transform="translate(1066,18) scale(0.9583333333333334)"><path fill="none" stroke="#FFFFFF" stroke-width="1.9" stroke-linecap="round" stroke-linejoin="round" d="M6 9a6 6 0 0 1 12 0c0 5 2 6 2 6H4s2-1 2-6"/><path fill="none" stroke="#FFFFFF" stroke-width="1.9" stroke-linecap="round" stroke-linejoin="round" d="M10 19a2 2 0 0 0 4 0"/></g>
</g></svg>