<svg xmlns="http://www.w3.org/2000/svg" viewBox="0 0 1280 676" width="1280" height="676" role="img">
<defs><linearGradient id="appbar" x1="0" y1="0" x2="1" y2="1"><stop offset="0" stop-color="#4361EE"/><stop offset="1" stop-color="#6366F1"/></linearGradient><filter id="cardShadow" x="-8%" y="-8%" width="116%" height="124%"><feDropShadow dx="0" dy="2" stdDeviation="5" flood-color="#0F172A" flood-opacity="0.06"/></filter><filter id="floatShadow" x="-20%" y="-20%" width="140%" height="150%"><feDropShadow dx="0" dy="8" stdDeviation="14" flood-color="#0F172A" flood-opacity="0.12"/></filter><linearGradient id="imgGrad" x1="0" y1="0" x2="0" y2="1"><stop offset="0" stop-color="#FFFFFF"/><stop offset="1" stop-color="#EEF2FF"/></linearGradient><clipPath id="round"><rect x="0" y="0" width="1280" height="676" rx="2"/></clipPath></defs>
<g clip-path="url(#round)">
<rect x="0" y="0" width="1280" height="676" rx="0" fill="#F8FAFC"/>
<rect x="28.0" y="82" width="294.0" height="116" rx="16" fill="#FFFFFF" stroke="#E2E8F0" stroke-width="1" filter="url(#cardShadow)"/><rect x="46.0" y="100" width="40" height="40" rx="11" fill="#DBEAFE"/><g transform="translate(54.8,108.8) scale(0.9333333333333332)"><path fill="none" stroke="#2563EB" stroke-width="2" stroke-linecap="round" stroke-linejoin="round" d="M4 7l8-4 8 4v10l-8 4-8-4z"/><path fill="none" stroke="#2563EB" stroke-width="2" stroke-linecap="round" stroke-linejoin="round" d="M4 7l8 4 8-4M12 11v10"/></g><text x="46.0" y="166" font-family="'Segoe UI', Roboto, -apple-system, BlinkMacSystemFont, Helvetica, Arial, sans-serif" font-size="26" font-weight="700" fill="#0F172A" text-anchor="start">1 482</text><text x="46.0" y="186" font-family="'Segoe UI', Roboto, -apple-system, BlinkMacSystemFont, Helvetica, Arial, sans-serif" font-size="13" font-weight="500" fill="#64748B" text-anchor="start">Total des produits</text><rect x="338.0" y="82" width="294.0" height="116" rx="16" fill="#FFFFFF" stroke="#E2E8F0" stroke-width="1" filter="url(#cardShadow)"/><rect x="356.0" y="100" width="40" height="40" rx="11" fill="#FEF3C7"/><g transform="translate(364.8,108.8) scale(0.9333333333333332)"><path fill="none" stroke="#D97706" stroke-width="2" stroke-linecap="round" stroke-linejoin="round" d="M12 4l8.5 15H3.5z"/><path fill="none" stroke="#D97706" stroke-width="2" stroke-linecap="round" stroke-linejoin="round" d="M12 10v4"/><circle fill="#D97706" cx="12" cy="16.5" r="1"/></g><text x="356.0" y="166" font-family="'Segoe UI', Roboto, -apple-system, BlinkMacSystemFont, Helvetica, Arial, sans-serif" font-size="26" font-weight="700" fill="#0F172A" text-anchor="start">12</text><text x="356.0" y="186" font-family="'Segoe UI', Roboto, -apple-system, BlinkMacSystemFont, Helvetica, Arial, sans-serif" font-size="13" font-weight="500" fill="#64748B" text-anchor="start">Faible stock</text><rect x="648.0" y="82" width="294.0" height="116" rx="16" fill="#FFFFFF" stroke="#E2E8F0" stroke-width="1" filter="url(#cardShadow)"/><rect x="666.0" y="100" width="40" height="40" rx="11" fill="#FEE2E2"/><g transform="translate(674.8,108.8) scale(0.9333333333333332)"><circle fill="none" stroke="#DC2626" stroke-width="2" stroke-linecap="round" stroke-linejoin="round" cx="12" cy="12" r="8.5"/><path fill="none" stroke="#DC2626" stroke-width="2" stroke-linecap="round" stroke-linejoin="round" d="M12 7.5V13"/><circle fill="#DC2626" cx="12" cy="16.5" r="1"/></g><text x="666.0" y="166" font-family="'Segoe UI', Roboto, -apple-system, BlinkMacSystemFont, Helvetica, Arial, sans-serif" font-size="26" font-weight="700" fill="#0F172A" text-anchor="start">3</text><text x="666.0" y="186" font-family="'Segoe UI', Roboto, -apple-system, BlinkMacSystemFont, Helvetica, Arial, sans-serif" font-size="13" font-weight="500" fill="#64748B" text-anchor="start">Rupture</text><rect x="958.0" y="82" width="294.0" height="116" rx="16" fill="#FFFFFF" stroke="#E2E8F0" stroke-width="1" filter="url(#cardShadow)"/><rect x="976.0" y="100" width="40" height="40" rx="11" fill="#DCFCE7"/><g transform="translate(984.8,108.8) scale(0.9333333333333332)"><rect fill="none" stroke="#16A34A" stroke-width="2" stroke-linecap="round" stroke-linejoin="round" x="3" y="7" width="15" height="10" rx="2"/><circle fill="none" stroke="#16A34A" stroke-width="2" stroke-linecap="round" stroke-linejoin="round" cx="10.5" cy="12" r="2.2"/><path fill="none" stroke="#16A34A" stroke-width="2" stroke-linecap="round" stroke-linejoin="round" d="M21 9v9a2 2 0 0 1-2 2H7"/></g><text x="976.0" y="166" font-family="'Segoe UI', Roboto, -apple-system, BlinkMacSystemFont, Helvetica, Arial, sans-serif" font-size="26" font-weight="700" fill="#0F172A" text-anchor="start">156 320 €</text><text x="976.0" y="186" font-family="'Segoe UI', Roboto, -apple-system, BlinkMacSystemFont, Helvetica, Arial, sans-serif" font-size="13" font-weight="500" fill="#64748B" text-anchor="start">Valeur totale</text><rect x="28" y="216" width="1024" height="44" rx="12" fill="#FFFFFF" stroke="#E2E8F0" stroke-width="1"/><g transform="translate(42,227) scale(0.9166666666666666)"><circle fill="none" stroke="#94A3B8" stroke-width="2" stroke-linecap="round" stroke-linejoin="round" cx="11" cy="11" r="6.5"/><path fill="none" stroke="#94A3B8" stroke-width="2" stroke-linecap="round" stroke-linejoin="round" d="M16 16l4.5 4.5"/></g><text x="74" y="244" font-family="'Segoe UI', Roboto, -apple-system, BlinkMacSystemFont, Helvetica, Arial, sans-serif" font-size="14" font-weight="400" fill="#94A3B8" text-anchor="start">Rechercher un produit</text><rect x="1064" y="216" width="90" height="44" rx="12" fill="#FFFFFF" stroke="#E2E8F0" stroke-width="1"/><g transform="translate(1074,227) scale(0.9166666666666666)"><path fill="none" stroke="#475569" stroke-width="2" stroke-linecap="round" stroke-linejoin="round" d="M6 5v14M6 5l-2.5 2.5M6 5l2.5 2.5"/><path fill="none" stroke="#475569" stroke-width="2" stroke-linecap="round" stroke-linejoin="round" d="M14 7h6M14 11h4M14 15h2"/></g><text x="1106" y="244" font-family="'Segoe UI', Roboto, -apple-system, BlinkMacSystemFont, Helvetica, Arial, sans-serif" font-size="14" font-weight="600" fill="#475569" text-anchor="start">Trier</text><rect x="1162" y="216" width="90" height="44" rx="12" fill="#FFFFFF" stroke="#E2E8F0" stroke-width="1"/><g transform="translate(1172,227) scale(0.9166666666666666)"><path fill="none" stroke="#475569" stroke-width="2" stroke-linecap="round" stroke-linejoin="round" d="M4 7h10M18 7h2M4 17h2M10 17h10"/><circle fill="none" stroke="#475569" stroke-width="2" stroke-linecap="round" stroke-linejoin="round" cx="16" cy="7" r="2.2"/><circle fill="none" stroke="#475569" stroke-width="2" stroke-linecap="round" stroke-linejoin="round" cx="8" cy="17" r="2.2"/></g><text x="1204" y="244" font-family="'Segoe UI', Roboto, -apple-system, BlinkMacSystemFont, Helvetica, Arial, sans-serif" font-size="14" font-weight="600" fill="#475569" text-anchor="start">Filtres</text><rect x="28.0" y="278.0" width="294.0" height="179.0" rx="16" fill="#FFFFFF" stroke="#E2E8F0" stroke-width="1" filter="url(#cardShadow)"/><rect x="29.0" y="279.0" width="292.0" height="82.34" rx="15" fill="url(#imgGrad)"/><rect x="29.0" y="345.34000000000003" width="292.0" height="15" rx="0" fill="#EEF2FF"/><g transform="translate(137.1,282.3) scale(0.758)"><rect x="44" y="24" width="12" height="9" fill="#3F6212"/><path d="M44 33h12v8l6 8v23a4 4 0 0 1-4 4H42a4 4 0 0 1-4-4V49l6-8z" fill="#65A30D"/><rect x="40" y="53" width="20" height="17" rx="2" fill="#FFFFFF" opacity="0.9"/><circle cx="50" cy="61" r="3" fill="#65A30D"/></g><text x="42.0" y="384.34000000000003" font-family="'Segoe UI', Roboto, -apple-system, BlinkMacSystemFont, Helvetica, Arial, sans-serif" font-size="13.5" font-weight="700" fill="#0F172A" text-anchor="start">Huile d'olive extra vie…</text><rect x="42.0" y="396.34000000000003" width="74.0" height="18" rx="9" fill="#DBEAFE"/><text x="48.0" y="409.34000000000003" font-family="'Segoe UI', Roboto, -apple-system, BlinkMacSystemFont, Helvetica, Arial, sans-serif" font-size="11" font-weight="600" fill="#1D4ED8" text-anchor="start">Condiments</text><text x="42.0" y="436.34000000000003" font-family="'Segoe UI', Roboto, -apple-system, BlinkMacSystemFont, Helvetica, Arial, sans-serif" font-size="15" font-weight="700" fill="#16A34A" text-anchor="start">12,99 €</text><text x="308.0" y="436.34000000000003" font-family="'Segoe UI', Roboto, -apple-system, BlinkMacSystemFont, Helvetica, Arial, sans-serif" font-size="12" font-weight="600" fill="#16A34A" text-anchor="end">Stock 45</text><rect x="338.0" y="278.0" width="294.0" height="179.0" rx="16" fill="#FFFFFF" stroke="#E2E8F0" stroke-width="1" filter="url(#cardShadow)"/><rect x="339.0" y="279.0" width="292.0" height="82.34" rx="15" fill="url(#imgGrad)"/><rect x="339.0" y="345.34000000000003" width="292.0" height="15" rx="0" fill="#EEF2FF"/><g transform="translate(447.1,282.3) scale(0.758)"><path d="M35 38h30v30a4 4 0 0 1-4 4H39a4 4 0 0 1-4-4z" fill="#6B4226"/><path d="M35 38l4-6h22l4 6z" fill="#4A2E1A"/><rect x="41" y="48" width="18" height="14" rx="2" fill="#FFFFFF" opacity="0.9"/><ellipse cx="50" cy="55" rx="4" ry="5.5" fill="#6B4226"/></g><rect x="551.28" y="290.0" width="64.72" height="22" rx="11" fill="#DC2626"/><text x="559.28" y="305.5" font-family="'Segoe UI', Roboto, -apple-system, BlinkMacSystemFont, Helvetica, Arial, sans-serif" font-size="12" font-weight="600" fill="#FFFFFF" text-anchor="start">Rupture</text><text x="352.0" y="384.34000000000003" font-family="'Segoe UI', Roboto, -apple-system, BlinkMacSystemFont, Helvetica, Arial, sans-serif" font-size="13.5" font-weight="700" fill="#0F172A" text-anchor="start">Café moulu espresso 250g</text><rect x="352.0" y="396.34000000000003" width="61.6" height="18" rx="9" fill="#DBEAFE"/><text x="358.0" y="409.34000000000003" font-family="'Segoe UI', Roboto, -apple-system, BlinkMacSystemFont, Helvetica, Arial, sans-serif" font-size="11" font-weight="600" fill="#1D4ED8" text-anchor="start">Boissons</text><text x="352.0" y="436.34000000000003" font-family="'Segoe UI', Roboto, -apple-system, BlinkMacSystemFont, Helvetica, Arial, sans-serif" font-size="15" font-weight="700" fill="#16A34A" text-anchor="start">8,75 €</text><text x="618.0" y="436.34000000000003" font-family="'Segoe UI', Roboto, -apple-system, BlinkMacSystemFont, Helvetica, Arial, sans-serif" font-size="12" font-weight="600" fill="#DC2626" text-anchor="end">Stock 0</text><rect x="648.0" y="278.0" width="294.0" height="179.0" rx="16" fill="#FFFFFF" stroke="#E2E8F0" stroke-width="1" filter="url(#cardShadow)"/><rect x="649.0" y="279.0" width="292.0" height="82.34" rx="15" fill="url(#imgGrad)"/><rect x="649.0" y="345.34000000000003" width="292.0" height="15" rx="0" fill="#EEF2FF"/><g transform="translate(757.1,282.3) scale(0.758)"><path d="M35 36h30v32a4 4 0 0 1-4 4H39a4 4 0 0 1-4-4z" fill="#F8FAFC" stroke="#CBD5E1" stroke-width="2"/><rect x="35" y="51" width="30" height="10" fill="#16A34A"/><path d="M41 44l3-6h12l3 6z" fill="#E2E8F0"/></g><rect x="847.36" y="290.0" width="78.63999999999999" height="22" rx="11" fill="#D97706"/><text x="855.36" y="305.5" font-family="'Segoe UI', Roboto, -apple-system, BlinkMacSystemFont, Helvetica, Arial, sans-serif" font-size="12" font-weight="600" fill="#FFFFFF" text-anchor="start">2 restant</text><text x="662.0" y="384.34000000000003" font-family="'Segoe UI', Roboto, -apple-system, BlinkMacSystemFont, Helvetica, Arial, sans-serif" font-size="13.5" font-weight="700" fill="#0F172A" text-anchor="start">Riz blanc long grain 1kg</text><rect x="662.0" y="396.34000000000003" width="67.80000000000001" height="18" rx="9" fill="#DBEAFE"/><text x="668.0" y="409.34000000000003" font-family="'Segoe UI', Roboto, -apple-system, BlinkMacSystemFont, Helvetica, Arial, sans-serif" font-size="11" font-weight="600" fill="#1D4ED8" text-anchor="start">Féculents</text><text x="662.0" y="436.34000000000003" font-family="'Segoe UI', Roboto, -apple-system, BlinkMacSystemFont, Helvetica, Arial, sans-serif" font-size="15" font-weight="700" fill="#16A34A" text-anchor="start">3,50 €</text><text x="928.0" y="436.34000000000003" font-family="'Segoe UI', Roboto, -apple-system, BlinkMacSystemFont, Helvetica, Arial, sans-serif" font-size="12" font-weight="600" fill="#D97706" text-anchor="end">Stock 2</text><rect x="958.0" y="278.0" width="294.0" height="179.0" rx="16" fill="#FFFFFF" stroke="#E2E8F0" stroke-width="1" filter="url(#cardShadow)"/><rect x="959.0" y="279.0" width="292.0" height="82.34" rx="15" fill="url(#imgGrad)"/><rect x="959.0" y="345.34000000000003" width="292.0" height="15" rx="0" fill="#EEF2FF"/><g transform="translate(1067.1,282.3) scale(0.758)"><path d="M34 45h32v21a6 6 0 0 1-6 6H40a6 6 0 0 1-6-6z" fill="#FBBF24"/><rect x="32" y="38" width="36" height="8" rx="2" fill="#D97706"/><rect x="41" y="51" width="18" height="15" rx="2" fill="#FFFFFF" opacity="0.85"/><path d="M50 38v34" stroke="#D97706" stroke-width="2" opacity="0.5"/></g><text x="972.0" y="384.34000000000003" font-family="'Segoe UI', Roboto, -apple-system, BlinkMacSystemFont, Helvetica, Arial, sans-serif" font-size="13.5" font-weight="700" fill="#0F172A" text-anchor="start">Miel de châtaignier 500…</text><rect x="972.0" y="396.34000000000003" width="92.60000000000001" height="18" rx="9" fill="#DBEAFE"/><text x="978.0" y="409.34000000000003" font-family="'Segoe UI', Roboto, -apple-system, BlinkMacSystemFont, Helvetica, Arial, sans-serif" font-size="11" font-weight="600" fill="#1D4ED8" text-anchor="start">Épicerie fine</text><text x="972.0" y="436.34000000000003" font-family="'Segoe UI', Roboto, -apple-system, BlinkMacSystemFont, Helvetica, Arial, sans-serif" font-size="15" font-weight="700" fill="#16A34A" text-anchor="start">9,99 €</text><text x="1238.0" y="436.34000000000003" font-family="'Segoe UI', Roboto, -apple-system, BlinkMacSystemFont, Helvetica, Arial, sans-serif" font-size="12" font-weight="600" fill="#16A34A" text-anchor="end">Stock 18</text><rect x="28.0" y="473.0" width="294.0" height="179.0" rx="16" fill="#FFFFFF" stroke="#E2E8F0" stroke-width="1" filter="url(#cardShadow)"/><rect x="29.0" y="474.0" width="292.0" height="82.34" rx="15" fill="url(#imgGrad)"/><rect x="29.0" y="540.34" width="292.0" height="15" rx="0" fill="#EEF2FF"/><g transform="translate(137.1,477.3) scale(0.758)"><rect x="30" y="38" width="40" height="28" rx="3" fill="#6B4226"/><rect x="30" y="38" width="40" height="7" fill="#8B5A2B" opacity="0.6"/><g stroke="#4A2E1A" stroke-width="2" fill="none"><path d="M43 38v28M57 38v28M30 52h40"/></g></g><rect x="227.36" y="485.0" width="78.63999999999999" height="22" rx="11" fill="#D97706"/><text x="235.36" y="500.5" font-family="'Segoe UI', Roboto, -apple-system, BlinkMacSystemFont, Helvetica, Arial, sans-serif" font-size="12" font-weight="600" fill="#FFFFFF" text-anchor="start">6 restant</text><text x="42.0" y="579.34" font-family="'Segoe UI', Roboto, -apple-system, BlinkMacSystemFont, Helvetica, Arial, sans-serif" font-size="13.5" font-weight="700" fill="#0F172A" text-anchor="start">Chocolat noir 70% 100g</text><rect x="42.0" y="591.34" width="74.0" height="18" rx="9" fill="#DBEAFE"/><text x="48.0" y="604.34" font-family="'Segoe UI', Roboto, -apple-system, BlinkMacSystemFont, Helvetica, Arial, sans-serif" font-size="11" font-weight="600" fill="#1D4ED8" text-anchor="start">Confiserie</text><text x="42.0" y="631.34" font-family="'Segoe UI', Roboto, -apple-system, BlinkMacSystemFont, Helvetica, Arial, sans-serif" font-size="15" font-weight="700" fill="#16A34A" text-anchor="start">4,50 €</text><text x="308.0" y="631.34" font-family="'Segoe UI', Roboto, -apple-system, BlinkMacSystemFont, Helvetica, Arial, sans-serif" font-size="12" font-weight="600" fill="#D97706" text-anchor="end">Stock 6</text><rect x="338.0" y="473.0" width="294.0" height="179.0" rx="16" fill="#FFFFFF" stroke="#E2E8F0" stroke-width="1" filter="url(#cardShadow)"/><rect x="339.0" y="474.0" width="292.0" height="82.34" rx="15" fill="url(#imgGrad)"/><rect x="339.0" y="540.34" width="292.0" height="15" rx="0" fill="#EEF2FF"/><g transform="translate(447.1,477.3) scale(0.758)"><rect x="36" y="30" width="28" height="44" rx="4" fill="#FEF3C7" stroke="#FCD34D" stroke-width="2"/><g stroke="#EAB308" stroke-width="2.5" stroke-linecap="round"><line x1="44" y1="34" x2="44" y2="70"/><line x1="50" y1="34" x2="50" y2="70"/><line x1="56" y1="34" x2="56" y2="70"/></g><rect x="36" y="46" width="28" height="12" fill="#FFFFFF" opacity="0.75"/></g><rect x="551.28" y="485.0" width="64.72" height="22" rx="11" fill="#DC2626"/><text x="559.28" y="500.5" font-family="'Segoe UI', Roboto, -apple-system, BlinkMacSystemFont, Helvetica, Arial, sans-serif" font-size="12" font-weight="600" fill="#FFFFFF" text-anchor="start">Rupture</text><text x="352.0" y="579.34" font-family="'Segoe UI', Roboto, -apple-system, BlinkMacSystemFont, Helvetica, Arial, sans-serif" font-size="13.5" font-weight="700" fill="#0F172A" text-anchor="start">Pâtes intégrales 500g</text><rect x="352.0" y="591.34" width="67.80000000000001" height="18" rx="9" fill="#DBEAFE"/><text x="358.0" y="604.34" font-family="'Segoe UI', Roboto, -apple-system, BlinkMacSystemFont, Helvetica, Arial, sans-serif" font-size="11" font-weight="600" fill="#1D4ED8" text-anchor="start">Féculents</text><text x="352.0" y="631.34" font-family="'Segoe UI', Roboto, -apple-system, BlinkMacSystemFont, Helvetica, Arial, sans-serif" font-size="15" font-weight="700" fill="#16A34A" text-anchor="start">2,40 €</text><text x="618.0" y="631.34" font-family="'Segoe UI', Roboto, -apple-system, BlinkMacSystemFont, Helvetica, Arial, sans-serif" font-size="12" font-weight="600" fill="#DC2626" text-anchor="end">Stock 0</text><rect x="648.0" y="473.0" width="294.0" height="179.0" rx="16" fill="#FFFFFF" stroke="#E2E8F0" stroke-width="1" filter="url(#cardShadow)"/><rect x="649.0" y="474.0" width="292.0" height="82.34" rx="15" fill="url(#imgGrad)"/><rect x="649.0" y="540.34" width="292.0" height="15" rx="0" fill="#EEF2FF"/><g transform="translate(757.1,477.3) scale(0.758)"><rect x="34" y="38" width="32" height="34" rx="3" fill="#16A34A"/><path d="M50 44c-6 2-9 7-9 12 6 0 10-4 9-12z" fill="#86EFAC"/><rect x="40" y="58" width="20" height="10" rx="2" fill="#FFFFFF" opacity="0.85"/></g><text x="662.0" y="579.34" font-family="'Segoe UI', Roboto, -apple-system, BlinkMacSystemFont, Helvetica, Arial, sans-serif" font-size="13.5" font-weight="700" fill="#0F172A" text-anchor="start">Thé vert sencha 100g</text><rect x="662.0" y="591.34" width="61.6" height="18" rx="9" fill="#DBEAFE"/><text x="668.0" y="604.34" font-family="'Segoe UI', Roboto, -apple-system, BlinkMacSystemFont, Helvetica, Arial, sans-serif" font-size="11" font-weight="600" fill="#1D4ED8" text-anchor="start">Boissons</text><text x="662.0" y="631.34" font-family="'Segoe UI', Roboto, -apple-system, BlinkMacSystemFont, Helvetica, Arial, sans-serif" font-size="15" font-weight="700" fill="#16A34A" text-anchor="start">6,20 €</text><text x="928.0" y="631.34" font-family="'Segoe UI', Roboto, -apple-system, BlinkMacSystemFont, Helvetica, Arial, sans-serif" font-size="12" font-weight="600" fill="#16A34A" text-anchor="end">Stock 33</text><rect x="958.0" y="473.0" width="294.0" height="179.0" rx="16" fill="#FFFFFF" stroke="#E2E8F0" stroke-width="1" filter="url(#cardShadow)"/><rect x="959.0" y="474.0" width="292.0" height="82.34" rx="15" fill="url(#imgGrad)"/><rect x="959.0" y="540.34" width="292.0" height="15" rx="0" fill="#EEF2FF"/><g transform="translate(1067.1,477.3) scale(0.758)"><path d="M34 46h32v20a6 6 0 0 1-6 6H40a6 6 0 0 1-6-6z" fill="#EF4444"/><rect x="34" y="44" width="32" height="6" fill="#B91C1C"/><rect x="32" y="36" width="36" height="9" rx="3" fill="#DC2626"/><rect x="41" y="54" width="18" height="14" rx="2" fill="#FFFFFF" opacity="0.85"/><circle cx="50" cy="61" r="3.5" fill="#EF4444"/></g><text x="972.0" y="579.34" font-family="'Segoe UI', Roboto, -apple-system, BlinkMacSystemFont, Helvetica, Arial, sans-serif" font-size="13.5" font-weight="700" fill="#0F172A" text-anchor="start">Confiture abricot 370g</text><rect x="972.0" y="591.34" width="92.60000000000001" height="18" rx="9" fill="#DBEAFE"/><text x="978.0" y="604.34" font-family="'Segoe UI', Roboto, -apple-system, BlinkMacSystemFont, Helvetica, Arial, sans-serif" font-size="11" font-weight="600" fill="#1D4ED8" text-anchor="start">Épicerie fine</text><text x="972.0" y="631.34" font-family="'Segoe UI', Roboto, -apple-system, BlinkMacSystemFont, Helvetica, Arial, sans-serif" font-size="15" font-weight="700" fill="#16A34A" text-anchor="start">4,10 €</text><text x="1238.0" y="631.34" font-family="'Segoe UI', Roboto, -apple-system, BlinkMacSystemFont, Helvetica, Arial, sans-serif" font-size="12" font-weight="600" fill="#16A34A" text-anchor="end">Stock 27</text><circle cx="1216" cy="616" r="30" fill="#4361EE"/><g transform="translate(1204,604) scale(1.0)"><path fill="none" stroke="#FFFFFF" stroke-width="2.4" stroke-linecap="round" stroke-linejoin="round" d="M12 5v14M5 12h14"/></g>
<rect x="0" y="0" width="1280" height="60" rx="0" fill="url(#appbar)"/><g transform="translate(22,18)"><path fill="none" stroke="#FFFFFF" stroke-width="2" stroke-linecap="round" stroke-linejoin="round" d="M15 5l-7 7 7 7"/><path fill="none" stroke="#FFFFFF" stroke-width="2" stroke-linecap="round" stroke-linejoin="round" d="M8 12h11"/></g><text x="60" y="38" font-family="'Segoe UI', Roboto, -apple-system, BlinkMacSystemFont, Helvetica, Arial, sans-serif" font-size="19" font-weight="600" fill="#FFFFFF" text-anchor="start">Gestion des produits</text><g transform="translate(1226,18) scale(0.9583333333333334)"><path fill="none" stroke="#FFFFFF" stroke-width="1.9" stroke-linecap="round" stroke-linejoin="round" d="M6 5v14M6 5l-2.5 2.5M6 5l2.5 2.5"/><path fill="none" stroke="#FFFFFF" stroke-width="1.9" stroke-linecap="round" stroke-linejoin="round" d="M14 7h6M14 11h4M14 15h2"/></g><g transform="translate(1184,18) scale(0.9583333333333334)"><path fill="none" stroke="#FFFFFF" stroke-width="1.9" stroke-linecap="round" stroke-linejoin="round" d="M4 7h10M18 7h2M4 17h2M10 17h10"/><circle fill="none" stroke="#FFFFFF" stroke-width="1.9" stroke-linecap="round" stroke-linejoin="round" cx="16" cy="7" r="2.2"/><circle fill="none" stroke="#FFFFFF" stroke-width="1.9" stroke-linecap="round" stroke-linejoin="round" cx="8" cy="17" r="2.2"/></g><g transform="translate(1142,18) scale(0.9583333333333334)"><path fill="none" stroke="#FFFFFF" stroke-width="1.9" stroke-linecap="round" stroke-linejoin="round" d="M4 8V5h3M20 8V5h-3M4 16v3h3M20 16v3h-3"/><path fill="none" stroke="#FFFFFF" stroke-width="1.9" stroke-linecap="round" stroke-linejoin="round" d="M7 8v8M10 8v8M13 8v8M16 8v8"/></g>
</g></svg>